<?xml version="1.0" encoding="utf-8"?>
<!-- Generator: Adobe Illustrator 17.1.0, SVG Export Plug-In . SVG Version: 6.00 Build 0)  -->
<!DOCTYPE svg PUBLIC "-//W3C//DTD SVG 1.1//EN" "http://www.w3.org/Graphics/SVG/1.1/DTD/svg11.dtd">
<svg version="1.1" id="Layer_1" xmlns="http://www.w3.org/2000/svg" xmlns:xlink="http://www.w3.org/1999/xlink" x="0px" y="0px"
	 viewBox="0 146.6 631.4 187" enable-background="new 0 146.6 631.4 187" xml:space="preserve">
<path fill="none" stroke="#000000" stroke-width="6" stroke-linejoin="round" d="M212.3,149.7c50.1,0.3,100.2-1.2,150,2.1
	c21.6,3.6,30.6,9.3,43.5,21.3c20.7,20.1,28.2,51.3,25.8,78.9c-1.5,21.3-11.7,45-30.3,59.1c-10.8,8.1-23.1,13.2-39.3,16.2
	c-30,3.9-60.6,2.4-90.9,2.7c-19.5,0-39.3,0-58.8,0.6V149.7L212.3,149.7z"/>
<path fill="none" stroke="#000000" stroke-width="6" d="M580.9,240H430.6"/>
<path fill="none" stroke="#000000" stroke-width="6" d="M211.7,187.5H61.5"/>
<path fill="none" stroke="#000000" stroke-width="6" d="M211.7,290.3H61.5"/>
<path d="M20.7,170.7l-8.4,22.5h16.8L20.7,170.7 M17.4,164.7h6.9L41.7,210h-6.3l-4.2-11.7H10.8L6.6,210H0L17.4,164.7"/>
<path d="M13.2,291.2v16.5h9.9c3.3,0,5.7-0.6,7.2-2.1s2.4-3.6,2.4-6.3c0-2.7-0.9-4.8-2.4-6.3s-3.9-2.1-7.2-2.1h-9.9 M13.2,272.7v13.8
	h9c3,0,5.1-0.6,6.6-1.8c1.5-1.2,2.1-3,2.1-5.1c0-2.4-0.6-3.9-2.1-5.1s-3.6-1.8-6.6-1.8H13.2 M6.9,267.6h15.6c4.8,0,8.4,0.9,10.8,3
	c2.4,1.8,3.9,4.8,3.9,8.4c0,2.7-0.6,5.1-1.8,6.6s-3.3,2.7-5.7,3c3,0.6,5.4,2.1,6.9,4.2c1.8,2.1,2.4,4.5,2.4,7.8
	c0,4.2-1.5,7.2-4.2,9.3c-2.7,2.1-6.6,3.3-11.7,3.3H6.9V267.6"/>
<path d="M606.8,216.4h24.6v5h-18.7v15.2H630v4.9h-17.3v20.7h-5.9V216.4z"/>
</svg>
