<?xml version="1.0" encoding="utf-8"?>
<!-- Generator: Adobe Illustrator 17.1.0, SVG Export Plug-In . SVG Version: 6.00 Build 0)  -->
<!DOCTYPE svg PUBLIC "-//W3C//DTD SVG 1.1//EN" "http://www.w3.org/Graphics/SVG/1.1/DTD/svg11.dtd">
<svg version="1.1" id="Layer_1" xmlns="http://www.w3.org/2000/svg" xmlns:xlink="http://www.w3.org/1999/xlink" x="0px" y="0px"
	 viewBox="103.3 911.8 640.3 128.9" enable-background="new 103.3 911.8 640.3 128.9" xml:space="preserve">
<path fill="none" stroke="#000000" stroke-width="6" stroke-linejoin="round" d="M223.8,929.3c30.1,0.2,60.1-0.7,89.9,1.2
	c13,2.1,18.3,5.6,26.1,12.8c12.4,12.1,16.9,30.7,15.4,47.3c-0.9,12.8-7,27-18.2,35.4c-6.4,4.9-13.8,7.9-23.6,9.7
	c-18,2.3-36.4,1.4-54.5,1.6c-11.7,0-23.6,0-35.2,0.4L223.8,929.3L223.8,929.3z"/>
<path fill="none" stroke="#000000" stroke-width="6" stroke-linejoin="round" d="M374.4,983.4c0,4.7-3.8,8.7-8.3,8.7
	s-8.3-3.8-8.3-8.7c0-4.7,3.8-8.7,8.3-8.7C370.8,974.7,374.4,978.5,374.4,983.4z"/>
<path fill="none" stroke="#000000" stroke-width="6" d="M437.7,983.1h-63.3"/>
<path fill="none" stroke="#000000" stroke-width="6" d="M223.8,949.9H142"/>
<path fill="none" stroke="#000000" stroke-width="6" d="M223.8,1014.2H142"/>
<path fill="none" stroke="#000000" stroke-width="6" stroke-linejoin="round" d="M472.2,929.3c30.1,0.2,60.1-0.7,89.9,1.2
	c13,2.1,18.3,5.6,26.1,12.8c12.4,12.1,16.9,30.7,15.4,47.3c-0.9,12.8-7,27-18.2,35.4c-6.4,4.9-13.8,7.9-23.6,9.7
	c-18,2.3-36.4,1.4-54.5,1.6c-11.7,0-23.6,0-35.2,0.4L472.2,929.3L472.2,929.3z"/>
<path fill="none" stroke="#000000" stroke-width="6" stroke-linejoin="round" d="M623,983.4c0,4.7-3.8,8.7-8.3,8.7
	c-4.5,0-8.3-3.8-8.3-8.7c0-4.7,3.8-8.7,8.3-8.7C619.5,974.7,623,978.5,623,983.4z"/>
<path fill="none" stroke="#000000" stroke-width="6" d="M472.3,1014.2h-34.5v-64.5h34.5"/>
<line fill="none" stroke="#000000" stroke-width="6" x1="623.2" y1="983.1" x2="717.4" y2="983.1"/>
<path d="M728.2,968.9h15.4v3.1h-11.8v9.5h10.8v3.1h-10.8v13h-3.7L728.2,968.9L728.2,968.9z"/>
<path d="M116.7,939.3l-5.3,14.1h10.5L116.7,939.3 M114.5,935.6h4.3l10.9,28.4h-4l-2.7-7.4h-12.8l-2.7,7.4h-4.2L114.5,935.6"/>
<path d="M112,1014.8v10.4h6.2c2,0,3.6-0.4,4.5-1.3c0.9-0.9,1.5-2.2,1.5-4c0-1.8-0.6-3-1.5-4c-0.9-1-2.5-1.3-4.5-1.3H112 M112,1003.2
	v8.7h5.6c1.9,0,3.2-0.4,4.2-1.1c0.9-0.7,1.3-1.9,1.3-3.2c0-1.5-0.4-2.5-1.3-3.2c-0.9-0.7-2.2-1.1-4.2-1.1H112 M108,999.9h9.8
	c3,0,5.3,0.6,6.8,1.9c1.5,1.1,2.5,3,2.5,5.3c0,1.7-0.4,3.2-1.1,4.2c-0.7,1-2,1.7-3.6,1.9c1.9,0.4,3.4,1.3,4.3,2.7
	c1.1,1.3,1.5,2.9,1.5,4.9c0,2.7-0.9,4.5-2.7,5.8c-1.7,1.3-4.2,2-7.4,2H108V999.9"/>
<path d="M358.6,955.4l12.3-32h4.6l13.1,32h-4.8l-3.7-9.7h-13.4l-3.5,9.7H358.6z M367.8,942.3h10.8l-3.3-8.8c-1-2.7-1.8-4.9-2.3-6.6
	c-0.4,2-1,4.1-1.7,6.1L367.8,942.3z"/>
<path d="M392.5,955.4v-4.5h4.5v4.5H392.5z"/>
<path d="M404.1,955.4v-32h12c2.4,0,4.4,0.3,5.9,1c1.5,0.6,2.6,1.6,3.5,3c0.8,1.3,1.3,2.8,1.3,4.2c0,1.4-0.4,2.7-1.1,3.9
	s-1.9,2.2-3.4,2.9c1.9,0.6,3.4,1.5,4.5,2.9c1,1.4,1.6,3,1.6,4.8c0,1.5-0.3,2.9-0.9,4.2c-0.6,1.3-1.4,2.3-2.3,3
	c-0.9,0.7-2.1,1.2-3.5,1.6c-1.4,0.4-3.1,0.5-5.2,0.5L404.1,955.4L404.1,955.4z M408.3,936.8h6.9c1.9,0,3.2-0.1,4-0.4
	c1.1-0.3,1.9-0.8,2.4-1.6c0.5-0.7,0.8-1.7,0.8-2.8c0-1.1-0.3-2-0.8-2.8c-0.5-0.8-1.2-1.4-2.2-1.7c-0.9-0.3-2.6-0.4-4.9-0.4h-6.4v9.7
	H408.3z M408.3,951.6h8c1.4,0,2.3-0.1,2.9-0.2c1-0.2,1.8-0.5,2.4-0.9c0.7-0.4,1.2-1,1.6-1.8s0.6-1.7,0.6-2.7c0-1.2-0.3-2.2-0.9-3.1
	c-0.6-0.9-1.5-1.5-2.5-1.9c-1.1-0.4-2.6-0.5-4.7-0.5h-7.4V951.6z"/>
<rect x="348.1" y="913.3" width="92.2" height="3.7"/>
<path d="M622,963.1l12.3-32h4.6l13.1,32h-4.8l-3.7-9.7h-13.4l-3.5,9.7H622z M631.3,950h10.8l-3.3-8.8c-1-2.7-1.8-4.9-2.3-6.6
	c-0.4,2-1,4.1-1.7,6.1L631.3,950z"/>
<path d="M655.9,963.1v-4.5h4.5v4.5H655.9z"/>
<path d="M667.5,963.1v-32h12c2.4,0,4.4,0.3,5.9,1c1.5,0.6,2.6,1.6,3.5,3c0.8,1.3,1.3,2.8,1.3,4.2c0,1.4-0.4,2.7-1.1,3.9
	c-0.7,1.2-1.9,2.2-3.4,2.9c1.9,0.6,3.4,1.5,4.5,2.9c1,1.4,1.6,3,1.6,4.8c0,1.5-0.3,2.9-0.9,4.2c-0.6,1.3-1.4,2.3-2.3,3
	c-0.9,0.7-2.1,1.2-3.5,1.6c-1.4,0.4-3.1,0.5-5.2,0.5L667.5,963.1L667.5,963.1z M671.8,944.6h6.9c1.9,0,3.2-0.1,4-0.4
	c1.1-0.3,1.9-0.8,2.4-1.6c0.5-0.7,0.8-1.7,0.8-2.8c0-1.1-0.3-2-0.8-2.8c-0.5-0.8-1.2-1.4-2.2-1.7c-0.9-0.3-2.6-0.4-4.9-0.4h-6.4v9.7
	H671.8z M671.8,959.4h8c1.4,0,2.3-0.1,2.9-0.2c1-0.2,1.8-0.5,2.4-0.9c0.7-0.4,1.2-1,1.6-1.8c0.4-0.8,0.6-1.7,0.6-2.7
	c0-1.2-0.3-2.2-0.9-3.1c-0.6-0.9-1.5-1.5-2.5-1.9c-1.1-0.4-2.6-0.5-4.7-0.5h-7.4L671.8,959.4L671.8,959.4z"/>
<rect x="610.9" y="921.1" width="92.2" height="3.7"/>
<rect x="610.9" y="911.8" width="92.2" height="3.7"/>
</svg>
