<?xml version="1.0" encoding="utf-8"?>
<!-- Generator: Adobe Illustrator 17.1.0, SVG Export Plug-In . SVG Version: 6.00 Build 0)  -->
<!DOCTYPE svg PUBLIC "-//W3C//DTD SVG 1.1//EN" "http://www.w3.org/Graphics/SVG/1.1/DTD/svg11.dtd">
<svg version="1.1" id="Layer_1" xmlns="http://www.w3.org/2000/svg" xmlns:xlink="http://www.w3.org/1999/xlink" x="0px" y="0px"
	 viewBox="0.1 394.5 640 247.4" enable-background="new 0.1 394.5 640 247.4" xml:space="preserve">
<path fill="none" stroke="#000000" stroke-width="6" d="M107.3,397.5c12.2,21.1,15,36.9,15,54.3c0,21.1-5.3,37.3-15,54.3
	c38.1,0,96.4-18.2,117.8-53.1C203.5,420.2,144.9,397.5,107.3,397.5L107.3,397.5z"/>
<path fill="none" stroke="#000000" stroke-width="6" stroke-linejoin="round" d="M240.8,453c0,4.2-3.4,7.7-7.4,7.7s-7.4-3.4-7.4-7.7
	c0-4.2,3.4-7.7,7.4-7.7C237.6,445.2,240.8,448.7,240.8,453z"/>
<path fill="none" stroke="#000000" stroke-width="6" d="M117.9,480.4H76v-57.3h41.9"/>
<path fill="none" stroke="#000000" stroke-width="6" d="M76,452.4H34.1"/>
<path fill="none" stroke="#000000" stroke-width="6" d="M107.3,530.3c12.2,21.1,15,36.9,15,54.3c0,21.1-5.3,37.3-15,54.3
	c38.1,0,96.4-18.2,117.8-53.1C203.5,553.1,144.9,530.3,107.3,530.3L107.3,530.3z"/>
<path fill="none" stroke="#000000" stroke-width="6" stroke-linejoin="round" d="M240.8,585.9c0,4.2-3.4,7.7-7.4,7.7
	s-7.4-3.4-7.4-7.7c0-4.2,3.4-7.7,7.4-7.7C237.6,578,240.8,581.5,240.8,585.9z"/>
<path fill="none" stroke="#000000" stroke-width="6" d="M117.9,613.2H76v-57.3h41.9"/>
<path fill="none" stroke="#000000" stroke-width="6" d="M76,585.2H34.1"/>
<path fill="none" stroke="#000000" stroke-width="6" d="M397.8,465.4c12.2,21.1,15,36.9,15,54.3c0,21.1-5.3,37.3-15,54.3
	c38.1,0,96.4-18.2,117.8-53.1C494,488.2,435.4,465.4,397.8,465.4L397.8,465.4z"/>
<path fill="none" stroke="#000000" stroke-width="6" stroke-linejoin="round" d="M531.3,521c0,4.2-3.4,7.7-7.4,7.7s-7.4-3.4-7.4-7.7
	c0-4.2,3.4-7.7,7.4-7.7C528.1,513.1,531.3,516.6,531.3,521z"/>
<path fill="none" stroke="#000000" stroke-width="6" d="M615.2,520.6h-83.7"/>
<polyline fill="none" stroke="#000000" stroke-width="6" points="240.9,452.7 324.7,452.7 324.7,491 408.4,491 "/>
<polyline fill="none" stroke="#000000" stroke-width="6" points="240.9,585.6 324.7,585.6 324.7,548.4 408.4,548.4 "/>
<path d="M11.6,443.5L6.9,456h9.4L11.6,443.5 M9.7,440.2h3.9l9.7,25.2h-3.5l-2.4-6.6H6.1l-2.4,6.6H0.1L9.7,440.2"/>
<path d="M279,418.3l-4.7,12.5h9.4L279,418.3 M277.1,414.9h3.9l9.7,25.2h-3.5l-2.4-6.6h-11.3l-2.4,6.6h-3.7L277.1,414.9"/>
<path d="M626.4,508h13.7v2.8h-10.5v8.4h9.6v2.8h-9.6v11.5h-3.3L626.4,508L626.4,508z"/>
<path d="M3,598.4V570h10.6c2.1,0,3.9,0.3,5.2,0.9c1.3,0.6,2.3,1.4,3.1,2.6c0.7,1.2,1.1,2.4,1.1,3.7c0,1.2-0.3,2.4-1,3.4
	c-0.7,1-1.7,1.9-3,2.6c1.7,0.5,3,1.4,4,2.6c0.9,1.2,1.4,2.6,1.4,4.3c0,1.3-0.3,2.6-0.8,3.7c-0.6,1.1-1.3,2-2.1,2.6
	c-0.8,0.6-1.9,1.1-3.1,1.4c-1.3,0.3-2.8,0.5-4.6,0.5H3z M6.8,581.9h6.1c1.7,0,2.9-0.1,3.6-0.3c0.9-0.3,1.7-0.8,2.1-1.4
	s0.7-1.5,0.7-2.5c0-0.9-0.2-1.8-0.7-2.5s-1.1-1.2-1.9-1.5c-0.8-0.3-2.3-0.4-4.3-0.4H6.8V581.9z M6.8,595h7.1c1.2,0,2-0.1,2.5-0.1
	c0.9-0.2,1.6-0.4,2.1-0.8c0.6-0.3,1-0.9,1.4-1.6c0.4-0.7,0.6-1.5,0.6-2.4c0-1-0.3-2-0.8-2.8c-0.6-0.8-1.3-1.3-2.3-1.7
	s-2.4-0.5-4.1-0.5H6.8V595z"/>
<path d="M269.4,574v-28.4h10.6c2.1,0,3.9,0.3,5.2,0.9c1.3,0.6,2.3,1.4,3.1,2.6c0.7,1.2,1.1,2.4,1.1,3.7c0,1.2-0.3,2.4-1,3.4
	c-0.7,1-1.7,1.9-3,2.6c1.7,0.5,3,1.4,4,2.6c0.9,1.2,1.4,2.6,1.4,4.3c0,1.3-0.3,2.6-0.8,3.7c-0.6,1.1-1.3,2-2.1,2.6
	c-0.8,0.6-1.9,1.1-3.1,1.4c-1.3,0.3-2.8,0.5-4.6,0.5H269.4z M273.2,557.6h6.1c1.7,0,2.9-0.1,3.6-0.3c0.9-0.3,1.7-0.8,2.1-1.4
	c0.5-0.7,0.7-1.5,0.7-2.5c0-0.9-0.2-1.8-0.7-2.5c-0.4-0.7-1.1-1.2-1.9-1.5s-2.3-0.4-4.3-0.4h-5.7V557.6z M273.2,570.7h7.1
	c1.2,0,2-0.1,2.5-0.1c0.9-0.2,1.6-0.4,2.1-0.8c0.6-0.3,1-0.9,1.4-1.6c0.4-0.7,0.6-1.5,0.6-2.4c0-1-0.3-2-0.8-2.8
	c-0.6-0.8-1.3-1.3-2.3-1.7c-0.9-0.3-2.4-0.5-4.1-0.5h-6.6L273.2,570.7L273.2,570.7z"/>
<rect x="266.4" y="538.5" width="25.3" height="3.3"/>
<rect x="266.4" y="408.4" width="25.3" height="3.3"/>
<rect x="532.2" y="459.7" width="76.6" height="3.3"/>
<rect x="532.2" y="469.6" width="25.3" height="3.3"/>
<rect x="583.2" y="469.6" width="25.3" height="3.3"/>
<path d="M531.9,508.1l11-28.6h4.1l11.7,28.6h-4.3l-3.3-8.7h-12l-3.1,8.7H531.9z M540.2,496.4h9.7l-3-7.9c-0.9-2.4-1.6-4.4-2-5.9
	c-0.4,1.8-0.9,3.7-1.5,5.5L540.2,496.4z"/>
<path d="M568.7,503.5v-7.9h-7.8v-3.3h7.8v-7.8h3.3v7.8h7.8v3.3H572v7.9H568.7z"/>
<path d="M584.9,508.1v-28.6h10.7c2.2,0,3.9,0.3,5.3,0.9s2.4,1.5,3.1,2.7s1.1,2.5,1.1,3.8c0,1.2-0.3,2.4-1,3.5s-1.7,2-3,2.6
	c1.7,0.5,3.1,1.4,4,2.6s1.4,2.7,1.4,4.3c0,1.3-0.3,2.6-0.8,3.7s-1.3,2-2.1,2.7s-1.9,1.1-3.1,1.4s-2.8,0.5-4.6,0.5H584.9z
	 M588.7,491.5h6.2c1.7,0,2.9-0.1,3.6-0.3c1-0.3,1.7-0.8,2.2-1.4s0.7-1.5,0.7-2.5c0-1-0.2-1.8-0.7-2.5s-1.1-1.2-2-1.5
	s-2.3-0.4-4.4-0.4h-5.7V491.5z M588.7,504.7h7.1c1.2,0,2.1,0,2.6-0.1c0.9-0.2,1.6-0.4,2.2-0.8s1.1-0.9,1.4-1.6s0.6-1.5,0.6-2.4
	c0-1.1-0.3-2-0.8-2.8s-1.3-1.3-2.3-1.7s-2.4-0.5-4.2-0.5h-6.6V504.7z"/>
</svg>
