<svg xmlns="http://www.w3.org/2000/svg" viewBox="0 0 445.5 205.6" enable-background="new 0 0 445.5 205.6"><path stroke="#000" stroke-width="2" stroke-miterlimit="10" d="M439.2 61.1c-6.8 37.5-17.9 37.5-24.8 0l-.3-1.4c-6.8-37.5-17.9-37.5-24.8 0l-.3 1.4c-6.8 37.5-17.9 37.5-24.8 0l-.3-1.4c-6.8-37.5-17.9-37.5-24.8 0l-.3 1.4c-6.8 37.5-17.9 37.5-24.8 0l-.3-1.4c-6.8-37.5-17.9-37.5-24.8 0l-.3 1.4c-6.8 37.5-17.9 37.5-24.8 0l-.3-1.4c-6.8-37.5-17.9-37.5-24.7 0l-.3 1.4c-6.8 37.5-17.9 37.5-24.8 0l-.3-1.4c-6.8-37.5-17.9-37.5-24.8 0l-.3 1.4c-6.8 37.5-17.9 37.5-24.8 0l-.3-1.4c-6.8-37.5-17.9-37.5-24.8 0l-.3 1.4c-6.8 37.5-17.9 37.5-24.8 0l-.3-1.4c-6.8-37.5-17.9-37.5-24.8 0l-.3 1.4c-6.8 37.5-17.9 37.5-24.8 0" fill="none"/><path stroke="#000" stroke-width="2" stroke-miterlimit="10" d="M439.2 165.8c-6.8 18-17.9 18-24.8 0l-.3-.7c-6.8-18-17.9-18-24.8 0l-.3.7c-6.8 18-17.9 18-24.8 0l-.3-.7c-6.8-18-17.9-18-24.8 0l-.3.7c-6.8 18-17.9 18-24.8 0l-.3-.7c-6.8-18-17.9-18-24.8 0l-.3.7c-6.8 18-17.9 18-24.8 0l-.3-.7c-6.8-18-17.9-18-24.8 0l-.3.7c-6.8 18-17.9 18-24.8 0l-.3-.7c-6.8-18-17.9-18-24.8 0l-.3.7c-6.8 18-17.9 18-24.8 0l-.3-.7c-6.8-18-17.9-18-24.8 0l-.3.7c-6.8 18-17.9 18-24.7 0l-.3-.7c-6.8-18-17.9-18-24.8 0l-.3.7c-6.8 18-17.9 18-24.8 0" fill="none"/><path d="M42.5 10.6h3v193h-3zM42.5 202.6h403v3h-403zM33.5 28.6h21v3h-21zM33.5 88.6h21v3h-21zM33.5 148.6h21v3h-21zM33.5 178.6h21v3h-21zM4.8 183.3c-1.1 0-2-.5-2.7-1.4-.7-.9-1-2.2-1-3.9 0-1.7.3-3 1-3.9.7-.9 1.5-1.3 2.7-1.3 1.1 0 2 .4 2.7 1.3.7.9 1 2.2 1 3.9 0 1.7-.3 3-1 3.9-.7 1-1.6 1.4-2.7 1.4zm0-9.5c-.4 0-.7.1-1 .2-.3.2-.6.4-.8.8s-.4.8-.5 1.3c-.1.5-.2 1.2-.2 1.9 0 1.5.2 2.5.7 3.2.5.7 1 1 1.8 1 .7 0 1.3-.3 1.8-1s.7-1.8.7-3.2c0-.7-.1-1.4-.2-1.9s-.3-1-.5-1.3-.5-.6-.8-.8c-.3-.1-.6-.2-1-.2zm0 5.2c-.3 0-.5-.1-.7-.3s-.3-.5-.3-.8c0-.3.1-.6.3-.8.2-.2.4-.3.7-.3s.5.1.7.3c.2.2.3.4.3.8 0 .3-.1.6-.3.8-.2.2-.4.3-.7.3zM13.1 182c0-.4.1-.7.4-1s.6-.4.9-.4.7.1.9.4c.3.3.4.6.4 1s-.1.7-.4 1c-.3.2-.6.4-.9.4s-.7-.1-.9-.4-.4-.6-.4-1zM24 183.3c-1.1 0-2-.5-2.7-1.4-.7-.9-1-2.2-1-3.9 0-1.7.3-3 1-3.9.7-.9 1.5-1.3 2.7-1.3 1.1 0 2 .4 2.7 1.3.7.9 1 2.2 1 3.9 0 1.7-.3 3-1 3.9-.7 1-1.6 1.4-2.7 1.4zm0-9.5c-.4 0-.7.1-1 .2-.3.2-.6.4-.8.8s-.4.8-.5 1.3c-.1.5-.2 1.2-.2 1.9 0 1.5.2 2.5.7 3.2.5.7 1 1 1.8 1 .7 0 1.3-.3 1.8-1s.7-1.8.7-3.2c0-.7-.1-1.4-.2-1.9s-.3-1-.5-1.3-.5-.6-.8-.8c-.3-.1-.6-.2-1-.2zm0 5.2c-.3 0-.5-.1-.7-.3s-.3-.5-.3-.8c0-.3.1-.6.3-.8.2-.2.4-.3.7-.3s.5.1.7.3c.2.2.3.4.3.8 0 .3-.1.6-.3.8-.2.2-.4.3-.7.3zM4.8 153.3c-1.1 0-2-.5-2.7-1.4-.7-.9-1-2.2-1-3.9 0-1.7.3-3 1-3.9.7-.9 1.5-1.3 2.7-1.3 1.1 0 2 .4 2.7 1.3.7.9 1 2.2 1 3.9 0 1.7-.3 3-1 3.9-.7 1-1.6 1.4-2.7 1.4zm0-9.5c-.4 0-.7.1-1 .2-.3.2-.6.4-.8.8s-.4.8-.5 1.3c-.1.5-.2 1.2-.2 1.9 0 1.5.2 2.5.7 3.2.5.7 1 1 1.8 1 .7 0 1.3-.3 1.8-1s.7-1.8.7-3.2c0-.7-.1-1.4-.2-1.9s-.3-1-.5-1.3-.5-.6-.8-.8c-.3-.1-.6-.2-1-.2zm0 5.2c-.3 0-.5-.1-.7-.3s-.3-.5-.3-.8c0-.3.1-.6.3-.8.2-.2.4-.3.7-.3s.5.1.7.3c.2.2.3.4.3.8 0 .3-.1.6-.3.8-.2.2-.4.3-.7.3zM13.1 152c0-.4.1-.7.4-1s.6-.4.9-.4.7.1.9.4c.3.3.4.6.4 1s-.1.7-.4 1c-.3.2-.6.4-.9.4s-.7-.1-.9-.4-.4-.6-.4-1zM20.3 150.5c0-.4.1-.7.2-.9.1-.3.3-.5.5-.8.2-.2.4-.4.7-.6.3-.2.5-.3.8-.4v-.1c-.4-.3-.8-.6-1.1-1-.3-.4-.5-.9-.5-1.4 0-.4.1-.8.2-1.1.2-.3.4-.6.7-.8.3-.2.6-.4 1-.5.4-.1.8-.2 1.3-.2s.9.1 1.3.2.7.3 1 .6c.3.2.5.5.6.9s.2.7.2 1.1c0 .5-.2.9-.5 1.4-.3.4-.7.8-1.1 1.1v.1l.8.4c.2.2.5.3.6.5.2.2.3.4.4.7.1.3.2.6.2 1s-.1.7-.2 1.1c-.2.3-.4.6-.7.9-.3.2-.7.4-1.1.6-.5.1-1 .2-1.6.2-.6 0-1.1-.1-1.6-.2s-.9-.3-1.2-.6c-.3-.3-.6-.5-.7-.9-.1-.5-.2-.9-.2-1.3zm1.2-.1c0 .6.2 1 .7 1.4.5.4 1.1.5 1.9.5.8 0 1.4-.2 1.8-.5.4-.3.6-.8.6-1.3 0-.4-.1-.6-.2-.9s-.4-.4-.7-.6c-.3-.2-.6-.3-1-.5-.4-.1-.8-.3-1.3-.4-.5.3-.9.6-1.2.9-.4.4-.6.9-.6 1.4zm3.3-2.8c.9-.6 1.3-1.3 1.3-2 0-.5-.2-.9-.5-1.3-.4-.3-.9-.5-1.5-.5s-1 .1-1.4.4c-.4.3-.5.7-.5 1.2 0 .3.1.6.2.8.1.2.3.4.6.6.2.2.5.3.9.5.2 0 .5.1.9.3zM1.2 92.3c.9-.8 1.6-1.5 2.3-2.1.7-.6 1.2-1.2 1.7-1.7s.8-1 1-1.4c.2-.4.4-.9.4-1.3 0-.6-.2-1.1-.5-1.4-.4-.4-.9-.6-1.7-.6-.5 0-.9.1-1.3.4s-.9.5-1.2.8l-.8-.8c.5-.5 1-.8 1.5-1.1.5-.3 1.2-.4 1.9-.4.5 0 1 .1 1.4.2.4.1.8.3 1 .6.3.3.5.6.7 1 .2.4.2.8.2 1.2 0 .5-.1 1-.3 1.4-.2.5-.6 1-1 1.5s-.9 1.1-1.5 1.6c-.6.6-1.2 1.2-1.9 1.8.3 0 .6 0 1-.1h4.4v1.1h-7.3v-.7zM13.1 92c0-.4.1-.7.4-1s.6-.4.9-.4.7.1.9.4c.3.3.4.6.4 1s-.1.7-.4 1c-.3.2-.6.4-.9.4s-.7-.1-.9-.4-.4-.6-.4-1zM24 93.3c-1.1 0-2-.5-2.7-1.4-.7-.9-1-2.2-1-3.9 0-1.7.3-3 1-3.9.7-.9 1.5-1.3 2.7-1.3 1.1 0 2 .4 2.7 1.3.7.9 1 2.2 1 3.9 0 1.7-.3 3-1 3.9-.7 1-1.6 1.4-2.7 1.4zm0-9.5c-.4 0-.7.1-1 .2-.3.2-.6.4-.8.8s-.4.8-.5 1.3c-.1.5-.2 1.2-.2 1.9 0 1.5.2 2.5.7 3.2.5.7 1 1 1.8 1 .7 0 1.3-.3 1.8-1s.7-1.8.7-3.2c0-.7-.1-1.4-.2-1.9s-.3-1-.5-1.3-.5-.6-.8-.8c-.3-.1-.6-.2-1-.2zm0 5.2c-.3 0-.5-.1-.7-.3s-.3-.5-.3-.8c0-.3.1-.6.3-.8.2-.2.4-.3.7-.3s.5.1.7.3c.2.2.3.4.3.8 0 .3-.1.6-.3.8-.2.2-.4.3-.7.3zM1.6 32.1c.2.2.4.3.5.4l.6.4c.3.1.5.2.8.2.3.1.6.1.9.1.4 0 .7-.1 1-.2.4 0 .6-.2.9-.4.2-.2.4-.4.6-.7.1-.3.1-.7.1-1 0-.7-.2-1.3-.7-1.6-.5-.4-1.1-.6-1.8-.6-.4 0-.8.1-1.1.2-.3.1-.6.3-1 .5l-.7-.4.3-4.9h5.8v1.1h-4.6l-.3 3 .9-.3c.3-.1.6-.1 1-.1.5 0 .9.1 1.4.2.5 0 .8.2 1.1.4.3.3.6.6.7 1 .2.4.3.9.3 1.4s-.1 1-.3 1.5-.5.8-.8 1.1c-.4.3-.8.5-1.2.7-.5.2-.9.2-1.4.2-.5 0-.9 0-1.2-.1s-.7-.2-1-.3c-.3-.1-.6-.3-.8-.4-.2-.2-.5-.3-.6-.5l.6-.9zM13.1 33c0-.4.1-.7.4-1s.6-.4.9-.4.7.1.9.4c.3.3.4.6.4 1s-.1.7-.4 1c-.3.2-.6.4-.9.4s-.7-.1-.9-.4-.4-.6-.4-1zM24 34.3c-1.1 0-2-.5-2.7-1.4-.7-.9-1-2.2-1-3.9 0-1.7.3-3 1-3.9.7-.9 1.5-1.3 2.7-1.3 1.1 0 2 .4 2.7 1.3.7.9 1 2.2 1 3.9 0 1.7-.3 3-1 3.9-.7 1-1.6 1.4-2.7 1.4zm0-9.5c-.4 0-.7.1-1 .2-.3.2-.6.4-.8.8s-.4.8-.5 1.3c-.1.5-.2 1.2-.2 1.9 0 1.5.2 2.5.7 3.2.5.7 1 1 1.8 1 .7 0 1.3-.3 1.8-1s.7-1.8.7-3.2c0-.7-.1-1.4-.2-1.9s-.3-1-.5-1.3-.5-.6-.8-.8c-.3-.1-.6-.2-1-.2zm0 5.2c-.3 0-.5-.1-.7-.3s-.3-.5-.3-.8c0-.3.1-.6.3-.8.2-.2.4-.3.7-.3s.5.1.7.3c.2.2.3.4.3.8 0 .3-.1.6-.3.8-.2.2-.4.3-.7.3zM.7 2.1h1.1l1.2 4.2c.1.5.3.9.4 1.3.1.4.2.9.4 1.3.1-.2.2-.4.2-.6s.1-.4.2-.6.1-.5.2-.7c.1-.2.1-.4.2-.7l1.3-4.2h1l-2.5 7.9h-1.2l-2.5-7.9zM8.1 7.1c0-.5.1-.9.2-1.3.2-.4.4-.7.6-1 .3-.3.6-.5.9-.6.4-.1.8-.2 1.2-.2.4 0 .8.1 1.1.2.3.1.7.3.9.6.3.3.5.6.6 1 .2.4.2.8.2 1.3s-.1.9-.2 1.3c-.2.4-.4.7-.6 1-.3.3-.6.5-.9.6-.3.1-.7.2-1.1.2-.4 0-.8-.1-1.1-.2-.4-.2-.7-.4-.9-.7-.3-.3-.5-.6-.7-1-.1-.3-.2-.8-.2-1.2zm1 0c0 .3 0 .6.1.9.1.3.2.5.4.7.2.2.4.3.6.4s.5.2.8.2c.3 0 .5-.1.8-.2s.4-.3.6-.5c.2-.2.3-.4.4-.7.1-.3.1-.6.1-.9 0-.3 0-.6-.1-.9-.1-.3-.2-.5-.4-.7-.2-.2-.4-.3-.7-.4s-.5-.2-.7-.2c-.3 0-.5.1-.8.2s-.4.2-.6.4l-.4.7c-.1.3-.1.6-.1 1zM15.5 1.4h3v6.7c0 .4.1.7.3.9s.5.3.8.3c.3 0 .7-.1 1.1-.3l.3.8c-.3.1-.5.2-.7.2-.2.1-.5.1-.8.1-.6 0-1.1-.2-1.4-.5-.3-.4-.5-.9-.5-1.6v-5.8h-2v-.8zM24.2 4.9h-1.6v-.7l1.7-.1.1-1.6h.8v1.6h2.9v.8h-2.9v2.8c0 .3 0 .5.1.7 0 .2.1.4.2.5.1.1.3.2.5.3.2.1.4.1.7.1.3 0 .5 0 .8-.1s.4-.1.6-.2l.2.7c-.3.1-.6.2-.9.2-.3.1-.6.1-1 .1s-.8-.1-1.1-.2c-.3-.1-.5-.3-.7-.5-.2-.2-.3-.5-.4-.8-.1-.3-.1-.6-.1-1v-2.6zM30.3 8.5c.3.3.7.5 1.1.6s.8.2 1.4.2c.5 0 .9-.1 1.2-.3.3-.2.4-.4.4-.6 0-.2-.1-.4-.4-.6-.3-.2-.8-.4-1.5-.5l-.9-.3c-.3-.1-.5-.2-.7-.4-.2-.1-.4-.3-.5-.5s-.2-.4-.2-.6c0-.2.1-.5.2-.7s.3-.4.5-.5.5-.3.8-.3h.9c.4 0 .9.1 1.3.2s.8.3 1.1.5l-.5.6c-.3-.2-.5-.3-.9-.4-.3-.1-.6-.2-1-.2-.3 0-.5 0-.7.1s-.3.1-.4.2c-.1.1-.2.2-.2.3l-.1.3c0 .2.2.4.5.6.3.2.8.3 1.3.4.8.2 1.4.4 1.8.7.4.3.6.6.6 1.1 0 .2-.1.5-.2.7-.1.2-.3.4-.5.6-.2.2-.5.3-.8.4-.3.1-.7.1-1.1.1-.6 0-1.1-.1-1.6-.3s-.9-.4-1.3-.6l.4-.8zM37.5 30.6h13v59h-13zM37.5 150.6h13v29h-13z"/></svg>