<?xml version="1.0" encoding="utf-8"?>
<!-- Generator: Adobe Illustrator 17.1.0, SVG Export Plug-In . SVG Version: 6.00 Build 0)  -->
<!DOCTYPE svg PUBLIC "-//W3C//DTD SVG 1.1//EN" "http://www.w3.org/Graphics/SVG/1.1/DTD/svg11.dtd">
<svg version="1.1" id="Layer_1" xmlns="http://www.w3.org/2000/svg" xmlns:xlink="http://www.w3.org/1999/xlink" x="0px" y="0px"
	 viewBox="-0.1 150.4 633.9 179.4" enable-background="new -0.1 150.4 633.9 179.4" xml:space="preserve">
<path fill="none" stroke="#000000" stroke-width="6" stroke-linejoin="round" d="M201.6,153.5c48,0.3,96-1.1,143.7,2
	c20.7,3.4,29.3,8.9,41.7,20.4c19.8,19.3,27,49.1,24.7,75.6c-1.4,20.4-11.2,43.1-29,56.6c-10.3,7.8-22.1,12.6-37.6,15.5
	c-28.7,3.7-58.1,2.3-87.1,2.6c-18.7,0-37.6,0-56.3,0.6L201.6,153.5L201.6,153.5z"/>
<path fill="none" stroke="#000000" stroke-width="6" stroke-linejoin="round" d="M441,240c0,7.2-5.7,13.2-12.6,13.2
	s-12.6-5.7-12.6-13.2c0-7.2,5.7-13.2,12.6-13.2C435.2,226.7,441,232.5,441,240z"/>
<path fill="none" stroke="#000000" stroke-width="6" d="M583.2,239.1h-144"/>
<path fill="none" stroke="#000000" stroke-width="6" d="M202.8,192h-144"/>
<path fill="none" stroke="#000000" stroke-width="6" d="M202.8,290.5h-144"/>
<path d="M20,176.2l-8,21.6h16L20,176.2 M16.5,170.1h6.6l16.7,43.4h-6l-4-11.2H10.2l-4,11.2h-6.3L16.5,170.1"/>
<path d="M12.5,291.7v15.8H22c3.2,0,5.5-0.6,6.9-2s2.3-3.4,2.3-6s-0.9-4.6-2.3-6s-3.7-2-6.9-2h-9.5 M12.5,273.9v13.2h8.6
	c2.9,0,4.9-0.6,6.3-1.7s2-2.9,2-4.9c0-2.3-0.6-3.7-2-4.9s-3.4-1.7-6.3-1.7H12.5 M6.8,269h14.9c4.6,0,8,0.9,10.3,2.9
	c2.3,1.7,3.7,4.6,3.7,8c0,2.6-0.6,4.9-1.7,6.3s-3.2,2.6-5.5,2.9c2.9,0.6,5.2,2,6.6,4c1.7,2,2.3,4.3,2.3,7.5c0,4-1.4,6.9-4,8.9
	s-6.3,3.2-11.2,3.2H6.8V269"/>
<path d="M610.2,216.7h23.6v4.7h-17.9V236h16.6v4.7h-16.6v19.8h-5.7L610.2,216.7L610.2,216.7z"/>
</svg>
