<?xml version="1.0" encoding="utf-8"?>
<!-- Generator: Adobe Illustrator 17.1.0, SVG Export Plug-In . SVG Version: 6.00 Build 0)  -->
<!DOCTYPE svg PUBLIC "-//W3C//DTD SVG 1.1//EN" "http://www.w3.org/Graphics/SVG/1.1/DTD/svg11.dtd">
<svg version="1.1" id="Layer_1" xmlns="http://www.w3.org/2000/svg" xmlns:xlink="http://www.w3.org/1999/xlink" x="0px" y="0px"
	 viewBox="0.1 139.8 631.5 200.5" enable-background="new 0.1 139.8 631.5 200.5" xml:space="preserve">
<path fill="none" stroke="#000000" stroke-width="6" d="M191.9,142.8c21.8,37.7,26.9,66.1,26.9,97.2c0,37.7-9.6,66.7-26.9,97.2
	c68.2,0,172.6-32.6,210.9-95.1C364.2,183.5,259.2,142.8,191.9,142.8L191.9,142.8z"/>
<path fill="none" stroke="#000000" stroke-width="6" stroke-linejoin="round" d="M430.9,242.2c0,7.5-6,13.8-13.2,13.8
	s-13.2-6-13.2-13.8c0-7.5,6-13.8,13.2-13.8C425.3,228.1,430.9,234.4,430.9,242.2z"/>
<path fill="none" stroke="#000000" stroke-width="6" d="M581.1,241.6H431.2"/>
<path fill="none" stroke="#000000" stroke-width="6" d="M211,188.6H61.1"/>
<path fill="none" stroke="#000000" stroke-width="6" d="M211,291.2H61.1"/>
<path d="M20.7,171.9l-8.4,22.4h16.8L20.7,171.9 M17.4,165.9h6.9l17.4,45.2h-6.3l-4.2-11.7H10.9l-4.2,11.7H0.1L17.4,165.9"/>
<path d="M13.3,292.1v16.5h9.9c3.3,0,5.7-0.6,7.2-2.1c1.5-1.5,2.4-3.6,2.4-6.3s-0.9-4.8-2.4-6.3c-1.5-1.5-3.9-2.1-7.2-2.1h-9.9
	 M13.3,273.6v13.8h9c3,0,5.1-0.6,6.6-1.8s2.1-3,2.1-5.1c0-2.4-0.6-3.9-2.1-5.1c-1.5-1.2-3.6-1.8-6.6-1.8H13.3 M7,268.5h15.6
	c4.8,0,8.4,0.9,10.8,3c2.4,1.8,3.9,4.8,3.9,8.4c0,2.7-0.6,5.1-1.8,6.6c-1.2,1.5-3.3,2.7-5.7,3c3,0.6,5.4,2.1,6.9,4.2
	c1.8,2.1,2.4,4.5,2.4,7.8c0,4.2-1.5,7.2-4.2,9.3c-2.7,2.1-6.6,3.3-11.7,3.3H7L7,268.5"/>
<path d="M607,218.2h24.6v4.9h-18.7v15.2h17.3v4.9h-17.3v20.6H607V218.2z"/>
</svg>
