<?xml version="1.0" encoding="utf-8"?>
<!-- Generator: Adobe Illustrator 17.1.0, SVG Export Plug-In . SVG Version: 6.00 Build 0)  -->
<!DOCTYPE svg PUBLIC "-//W3C//DTD SVG 1.1//EN" "http://www.w3.org/Graphics/SVG/1.1/DTD/svg11.dtd">
<svg version="1.1" id="Layer_1" xmlns="http://www.w3.org/2000/svg" xmlns:xlink="http://www.w3.org/1999/xlink" x="0px" y="0px"
	 viewBox="0 286.5 636.5 193.9" enable-background="new 0 286.5 636.5 193.9" xml:space="preserve">
<path fill="none" stroke="#000000" stroke-width="6" stroke-linejoin="round" d="M388.3,383.5l-162.6,94V289.5L388.3,383.5z"/>
<path fill="none" stroke="#000000" stroke-width="6" stroke-linejoin="round" d="M418.1,382.8c0,8-6.4,14.9-14.3,14.9
	c-7.7,0-14.3-6.4-14.3-14.9c0-8,6.4-14.9,14.3-14.9C411.5,368,418.1,374.4,418.1,382.8z"/>
<path fill="none" stroke="#000000" stroke-width="6" d="M579.9,381.5H417.8"/>
<path fill="none" stroke="#000000" stroke-width="6" d="M228,383.5H65.7"/>
<path d="M22.3,365.6l-9.1,24.2h18.1L22.3,365.6 M18.7,359.2h7.4L45,408.1h-6.7l-4.5-12.7h-22l-4.5,12.7H0L18.7,359.2"/>
<path d="M609.9,356.2h26.6v5.3h-20.2v16.4H635v5.2h-18.7v22.3h-6.3L609.9,356.2L609.9,356.2z"/>
</svg>
