<?xml version="1.0" encoding="utf-8"?>
<!-- Generator: Adobe Illustrator 17.1.0, SVG Export Plug-In . SVG Version: 6.00 Build 0)  -->
<!DOCTYPE svg PUBLIC "-//W3C//DTD SVG 1.1//EN" "http://www.w3.org/Graphics/SVG/1.1/DTD/svg11.dtd">
<svg version="1.1" id="Layer_1" xmlns="http://www.w3.org/2000/svg" xmlns:xlink="http://www.w3.org/1999/xlink" x="0px" y="0px"
	 viewBox="0.1 416.7 655.6 203" enable-background="new 0.1 416.7 655.6 203" xml:space="preserve">
<path fill="none" stroke="#000000" stroke-width="6" d="M194.5,419.7c22.1,38.2,27.3,67,27.3,98.5c0,38.2-9.7,67.6-27.3,98.5
	c69.1,0,174.9-33,213.7-96.4C369.1,461,262.7,419.7,194.5,419.7L194.5,419.7z"/>
<path fill="none" stroke="#000000" stroke-width="6" stroke-linejoin="round" d="M436.7,520.5c0,7.6-6.1,14-13.4,14
	s-13.4-6.1-13.4-14c0-7.6,6.1-14,13.4-14C431,506.2,436.7,512.6,436.7,520.5z"/>
<path fill="none" stroke="#000000" stroke-width="6" d="M588.9,519.9H437"/>
<path fill="none" stroke="#000000" stroke-width="6" d="M213.8,570.1h-76v-104h76"/>
<path fill="none" stroke="#000000" stroke-width="6" d="M137.7,519.3h-76"/>
<path d="M21,503.2l-8.5,22.7h17L21,503.2 M17.6,497.2h7L42.2,543h-6.4l-4.3-11.9H11L6.7,543H0.1L17.6,497.2"/>
<path d="M631,503.2l-8.5,22.7h17L631,503.2 M627.6,497.2h7l17.6,45.8h-6.4l-4.3-11.9H621l-4.3,11.9h-6.6L627.6,497.2"/>
<rect x="606.6" y="483" width="49" height="6"/>
</svg>
