<?xml version="1.0" encoding="utf-8"?>
<!-- Generator: Adobe Illustrator 17.1.0, SVG Export Plug-In . SVG Version: 6.00 Build 0)  -->
<!DOCTYPE svg PUBLIC "-//W3C//DTD SVG 1.1//EN" "http://www.w3.org/Graphics/SVG/1.1/DTD/svg11.dtd">
<svg version="1.1" id="Layer_1" xmlns="http://www.w3.org/2000/svg" xmlns:xlink="http://www.w3.org/1999/xlink" x="0px" y="0px"
	 viewBox="0.1 707 640 180.9" enable-background="new 0.1 707 640 180.9" xml:space="preserve">
<path fill="none" stroke="#000000" stroke-width="6" stroke-linejoin="round" d="M185,710c48.5,0.3,96.9-1.1,145.1,2
	c20.9,3.4,29.6,9,42.1,20.6c20,19.5,27.3,49.6,24.9,76.3c-1.4,20.6-11.3,43.5-29.3,57.1c-10.4,7.9-22.3,12.7-38,15.6
	c-29,3.7-58.7,2.3-87.9,2.6c-18.9,0-38,0-56.8,0.6L185,710L185,710z"/>
<path fill="none" stroke="#000000" stroke-width="6" stroke-linejoin="round" d="M426.4,799.8c0,7.4-6,13.7-13.1,13.7
	c-7.1,0-13.1-6-13.1-13.7c0-7.4,6-13.7,13.1-13.7C420.8,785.8,426.4,792,426.4,799.8z"/>
<path fill="none" stroke="#000000" stroke-width="6" d="M575,799.3H426.7"/>
<path fill="none" stroke="#000000" stroke-width="6" d="M185,848.3h-50.5V746.6H185"/>
<path fill="none" stroke="#000000" stroke-width="6" d="M134.4,798.7H60.2"/>
<path d="M20.5,782.9l-8.3,22.2h16.6L20.5,782.9 M17.2,777H24l17.2,44.7H35l-4.2-11.6h-20l-4.2,11.6H0.1L17.2,777"/>
<path d="M616.1,782.9l-8.3,22.2h16.6L616.1,782.9 M612.8,777h6.8l17.2,44.7h-6.2l-4.2-11.6h-20l-4.2,11.6h-6.4L612.8,777"/>
<rect x="592.3" y="763.1" width="47.8" height="5.9"/>
</svg>
