<?xml version="1.0" encoding="utf-8"?>
<!-- Generator: Adobe Illustrator 17.1.0, SVG Export Plug-In . SVG Version: 6.00 Build 0)  -->
<!DOCTYPE svg PUBLIC "-//W3C//DTD SVG 1.1//EN" "http://www.w3.org/Graphics/SVG/1.1/DTD/svg11.dtd">
<svg version="1.1" id="Layer_1" xmlns="http://www.w3.org/2000/svg" xmlns:xlink="http://www.w3.org/1999/xlink" x="0px" y="0px"
	 viewBox="-0.1 401.4 640 213.4" enable-background="new -0.1 401.4 640 213.4" xml:space="preserve">
<path fill="none" stroke="#000000" stroke-width="6" d="M204.9,404.4c23.3,40.3,28.7,70.6,28.7,103.7c0,40.3-10.2,71.2-28.7,103.7
	c72.8,0,184.2-34.8,225-101.5C388.7,447.8,276.3,404.4,204.9,404.4L204.9,404.4z"/>
<path fill="none" stroke="#000000" stroke-width="6" d="M225.2,453H65.3"/>
<path fill="none" stroke="#000000" stroke-width="6" d="M225.2,562.7H65.3"/>
<path fill="none" stroke="#000000" stroke-width="6" d="M586.1,509.6h-160"/>
<path d="M22.2,435.3l-8.9,23.9h17.8L22.2,435.3 M18.5,428.9h7.3l18.6,48.2h-6.8l-4.5-12.5H11.4l-4.5,12.5h-7L18.5,428.9"/>
<path d="M13.9,563.7v17.5h10.5c3.5,0,6.1-0.6,7.7-2.2c1.6-1.6,2.5-3.9,2.5-6.7c0-2.8-0.9-5.1-2.5-6.7c-1.6-1.6-4.2-2.2-7.7-2.2H13.9
	 M13.9,543.8v14.7h9.5c3.1,0,5.5-0.6,7-1.9c1.6-1.3,2.2-3.1,2.2-5.5c0-2.5-0.6-4.2-2.2-5.5c-1.6-1.3-3.9-1.9-7-1.9L13.9,543.8
	 M7.5,538.3h16.6c5.1,0,8.9,0.9,11.5,3.1c2.5,1.9,4.2,5.1,4.2,8.9c0,2.8-0.6,5.5-1.9,7c-1.3,1.6-3.5,2.8-6.1,3.1
	c3.1,0.6,5.8,2.2,7.3,4.5c1.9,2.2,2.5,4.8,2.5,8.3c0,4.5-1.6,7.7-4.5,9.9c-2.8,2.2-7,3.5-12.5,3.5H7.4v-48.5"/>
<path d="M605.6,530.3v-50.8h34.3v6h-27.6v15.7h23.8v6h-23.8v23.1H605.6L605.6,530.3z"/>
</svg>
