<?xml version="1.0" encoding="utf-8"?>
<!-- Generator: Adobe Illustrator 17.1.0, SVG Export Plug-In . SVG Version: 6.00 Build 0)  -->
<!DOCTYPE svg PUBLIC "-//W3C//DTD SVG 1.1//EN" "http://www.w3.org/Graphics/SVG/1.1/DTD/svg11.dtd">
<svg version="1.1" id="Layer_1" xmlns="http://www.w3.org/2000/svg" xmlns:xlink="http://www.w3.org/1999/xlink" x="0px" y="0px"
	 viewBox="0.1 517.8 640 235.9" enable-background="new 0.1 517.8 640 235.9" xml:space="preserve">
<path fill="none" stroke="#000000" stroke-width="6" stroke-linejoin="round" d="M107.2,520.8c26.9,0.2,53.7-0.6,80.5,1.1
	c11.6,1.9,16.4,5,23.3,11.4c11.1,10.8,15.1,27.5,13.8,42.3c-0.8,11.4-6.3,24.1-16.2,31.7c-5.8,4.4-12.4,7.1-21.1,8.7
	c-16.1,2.1-32.5,1.3-48.8,1.5c-10.5,0-21.1,0-31.5,0.3V520.8L107.2,520.8z"/>
<path fill="none" stroke="#000000" stroke-width="6" stroke-linejoin="round" d="M240.8,569.3c0,4.2-3.4,7.7-7.4,7.7
	s-7.4-3.4-7.4-7.7c0-4.2,3.4-7.7,7.4-7.7C237.6,561.5,240.8,565,240.8,569.3z"/>
<path fill="none" stroke="#000000" stroke-width="6" d="M107.2,596.7H76v-57.3h31.2"/>
<path fill="none" stroke="#000000" stroke-width="6" d="M76,568.7H34.1"/>
<path fill="none" stroke="#000000" stroke-width="6" stroke-linejoin="round" d="M106.9,653.7c26.9,0.2,53.7-0.6,80.5,1.1
	c11.6,1.9,16.4,5,23.3,11.4c11.1,10.8,15.1,27.5,13.8,42.3c-0.8,11.4-6.3,24.1-16.2,31.7c-5.8,4.4-12.4,7.1-21.1,8.7
	c-16.1,2.1-32.5,1.3-48.8,1.5c-10.5,0-21.1,0-31.5,0.3L106.9,653.7L106.9,653.7z"/>
<path fill="none" stroke="#000000" stroke-width="6" stroke-linejoin="round" d="M240.8,702.2c0,4.2-3.4,7.7-7.4,7.7
	s-7.4-3.4-7.4-7.7c0-4.2,3.4-7.7,7.4-7.7C237.6,694.3,240.8,697.8,240.8,702.2z"/>
<path fill="none" stroke="#000000" stroke-width="6" d="M107.2,729.5H76v-57.3h31.2"/>
<path fill="none" stroke="#000000" stroke-width="6" d="M76,701.5H34.1"/>
<path fill="none" stroke="#000000" stroke-width="6" stroke-linejoin="round" d="M397.7,588.5c26.9,0.2,53.7-0.6,80.5,1.1
	c11.6,1.9,16.4,5,23.3,11.4c11.1,10.8,15.1,27.5,13.8,42.3c-0.8,11.4-6.3,24.1-16.2,31.7c-5.8,4.4-12.4,7.1-21.1,8.7
	c-16.1,2.1-32.5,1.3-48.8,1.5c-10.5,0-21.1,0-31.5,0.3L397.7,588.5L397.7,588.5z"/>
<path fill="none" stroke="#000000" stroke-width="6" stroke-linejoin="round" d="M531.3,637.3c0,4.2-3.4,7.7-7.4,7.7
	s-7.4-3.4-7.4-7.7c0-4.2,3.4-7.7,7.4-7.7C528.1,629.4,531.3,632.9,531.3,637.3z"/>
<path fill="none" stroke="#000000" stroke-width="6" d="M615.2,636.9h-83.7"/>
<polyline fill="none" stroke="#000000" stroke-width="6" points="240.9,569 324.7,569 324.7,607.3 397.8,607.3 "/>
<polyline fill="none" stroke="#000000" stroke-width="6" points="240.9,701.9 324.7,701.9 324.7,664.7 397.8,664.7 "/>
<rect x="537.2" y="574" width="64.3" height="3.3"/>
<rect x="266.4" y="654.8" width="25.3" height="3.3"/>
<rect x="266.4" y="524.7" width="25.3" height="3.3"/>
<rect x="537.2" y="583.9" width="25.3" height="3.3"/>
<rect x="576.2" y="583.9" width="25.3" height="3.3"/>
<path d="M11.6,559.8l-4.7,12.5h9.4L11.6,559.8 M9.7,556.5h3.9l9.7,25.2h-3.5l-2.4-6.6H6.1l-2.4,6.6H0.1L9.7,556.5"/>
<path d="M279,534.6l-4.7,12.5h9.4L279,534.6 M277.1,531.2h3.9l9.7,25.2h-3.5l-2.4-6.6h-11.3l-2.4,6.6h-3.7L277.1,531.2"/>
<path d="M626.4,624.3h13.7v2.8h-10.5v8.4h9.6v2.8h-9.6v11.5h-3.3L626.4,624.3L626.4,624.3z"/>
<path d="M3,714.7v-28.4h10.6c2.1,0,3.9,0.3,5.2,0.9c1.3,0.6,2.3,1.4,3.1,2.6c0.7,1.2,1.1,2.4,1.1,3.7c0,1.2-0.3,2.4-1,3.4
	s-1.7,1.9-3,2.6c1.7,0.5,3,1.4,4,2.6c0.9,1.2,1.4,2.6,1.4,4.3c0,1.3-0.3,2.6-0.8,3.7c-0.6,1.1-1.3,2-2.1,2.6
	c-0.8,0.6-1.9,1.1-3.1,1.4c-1.3,0.3-2.8,0.5-4.6,0.5H3V714.7z M6.8,698.2h6.1c1.7,0,2.9-0.1,3.6-0.3c0.9-0.3,1.7-0.8,2.1-1.4
	s0.7-1.5,0.7-2.5c0-0.9-0.2-1.8-0.7-2.5s-1.1-1.2-1.9-1.5c-0.8-0.3-2.3-0.4-4.3-0.4H6.8V698.2z M6.8,711.3h7.1c1.2,0,2-0.1,2.5-0.1
	c0.9-0.2,1.6-0.4,2.1-0.8c0.6-0.3,1-0.9,1.4-1.6c0.4-0.7,0.6-1.5,0.6-2.4c0-1-0.3-2-0.8-2.8c-0.6-0.8-1.3-1.3-2.3-1.7
	s-2.4-0.5-4.1-0.5H6.8V711.3z"/>
<path d="M269.4,690.3v-28.4H280c2.1,0,3.9,0.3,5.2,0.9c1.3,0.6,2.3,1.4,3.1,2.6c0.7,1.2,1.1,2.4,1.1,3.7c0,1.2-0.3,2.4-1,3.4
	s-1.7,1.9-3,2.6c1.7,0.5,3,1.4,4,2.6c0.9,1.2,1.4,2.6,1.4,4.3c0,1.3-0.3,2.6-0.8,3.7c-0.6,1.1-1.3,2-2.1,2.6
	c-0.8,0.6-1.9,1.1-3.1,1.4c-1.3,0.3-2.8,0.5-4.6,0.5h-10.8V690.3z M273.2,673.9h6.1c1.7,0,2.9-0.1,3.6-0.3c0.9-0.3,1.7-0.8,2.1-1.4
	c0.5-0.7,0.7-1.5,0.7-2.5c0-0.9-0.2-1.8-0.7-2.5c-0.4-0.7-1.1-1.2-1.9-1.5s-2.3-0.4-4.3-0.4h-5.7L273.2,673.9L273.2,673.9z
	 M273.2,687h7.1c1.2,0,2-0.1,2.5-0.1c0.9-0.2,1.6-0.4,2.1-0.8c0.6-0.3,1-0.9,1.4-1.6c0.4-0.7,0.6-1.5,0.6-2.4c0-1-0.3-2-0.8-2.8
	c-0.6-0.8-1.3-1.3-2.3-1.7c-0.9-0.3-2.4-0.5-4.1-0.5h-6.6L273.2,687L273.2,687z"/>
<path d="M538.1,622.4l11-28.6h4.1l11.7,28.6h-4.3l-3.3-8.7h-12l-3.1,8.7H538.1z M546.4,610.7h9.7l-3-7.9c-0.9-2.4-1.6-4.4-2-5.9
	c-0.4,1.8-0.9,3.7-1.5,5.5L546.4,610.7z"/>
<path d="M568.5,622.4v-4h4v4H568.5z"/>
<path d="M578.9,622.4v-28.6h10.7c2.2,0,3.9,0.3,5.3,0.9c1.3,0.6,2.4,1.5,3.1,2.7c0.7,1.2,1.1,2.5,1.1,3.8c0,1.2-0.3,2.4-1,3.5
	s-1.7,2-3,2.6c1.7,0.5,3.1,1.4,4,2.6c0.9,1.2,1.4,2.7,1.4,4.3c0,1.3-0.3,2.6-0.8,3.7s-1.3,2-2.1,2.7c-0.8,0.6-1.9,1.1-3.1,1.4
	c-1.3,0.3-2.8,0.5-4.6,0.5H578.9z M582.7,605.8h6.2c1.7,0,2.9-0.1,3.6-0.3c1-0.3,1.7-0.8,2.2-1.4s0.7-1.5,0.7-2.5
	c0-1-0.2-1.8-0.7-2.5c-0.5-0.7-1.1-1.2-2-1.5c-0.8-0.3-2.3-0.4-4.4-0.4h-5.7V605.8z M582.7,619h7.1c1.2,0,2.1,0,2.6-0.1
	c0.9-0.2,1.6-0.4,2.2-0.8s1.1-0.9,1.4-1.6c0.4-0.7,0.6-1.5,0.6-2.4c0-1.1-0.3-2-0.8-2.8s-1.3-1.3-2.3-1.7c-1-0.3-2.4-0.5-4.2-0.5
	h-6.6V619z"/>
</svg>
