<?xml version="1.0" encoding="utf-8"?>
<!-- Generator: Adobe Illustrator 17.1.0, SVG Export Plug-In . SVG Version: 6.00 Build 0)  -->
<!DOCTYPE svg PUBLIC "-//W3C//DTD SVG 1.1//EN" "http://www.w3.org/Graphics/SVG/1.1/DTD/svg11.dtd">
<svg version="1.1" id="Layer_1" xmlns="http://www.w3.org/2000/svg" xmlns:xlink="http://www.w3.org/1999/xlink" x="0px" y="0px"
	 viewBox="103.6 736.2 640.1 134.4" enable-background="new 103.6 736.2 640.1 134.4" xml:space="preserve">
<path fill="none" stroke="#000000" stroke-width="6" d="M224.2,745.5c13.7,23.7,16.9,41.5,16.9,61.1c0,23.7-6,41.9-16.9,61.1
	c42.8,0,108.4-20.5,132.5-59.8C332.4,771.1,266.5,745.5,224.2,745.5L224.2,745.5z"/>
<path fill="none" stroke="#000000" stroke-width="6" stroke-linejoin="round" d="M374.4,807.9c0,4.7-3.8,8.7-8.3,8.7
	s-8.3-3.8-8.3-8.7c0-4.7,3.8-8.7,8.3-8.7C370.8,799.1,374.4,803,374.4,807.9z"/>
<path fill="none" stroke="#000000" stroke-width="6" d="M437.8,807.6h-63.3"/>
<path fill="none" stroke="#000000" stroke-width="6" d="M236.2,774.3H142"/>
<path fill="none" stroke="#000000" stroke-width="6" d="M236.2,838.7H142"/>
<path fill="none" stroke="#000000" stroke-width="6" d="M472.9,745.5c13.7,23.7,16.9,41.5,16.9,61.1c0,23.7-6,41.9-16.9,61.1
	c42.8,0,108.4-20.5,132.5-59.8C581.2,771.1,515.2,745.5,472.9,745.5L472.9,745.5z"/>
<path fill="none" stroke="#000000" stroke-width="6" stroke-linejoin="round" d="M623.1,807.9c0,4.7-3.8,8.7-8.3,8.7
	s-8.3-3.8-8.3-8.7c0-4.7,3.8-8.7,8.3-8.7C619.6,799.1,623.1,803,623.1,807.9z"/>
<path fill="none" stroke="#000000" stroke-width="6" d="M484.9,838.7h-47.1v-64.5h47.1"/>
<line fill="none" stroke="#000000" stroke-width="6" x1="623.3" y1="807.6" x2="717.5" y2="807.6"/>
<path d="M728.3,793.3h15.4v3.1h-11.8v9.5h10.8v3.1h-10.8v13h-3.7L728.3,793.3L728.3,793.3z"/>
<path d="M116.7,763.7l-5.3,14.1h10.5L116.7,763.7 M114.5,760h4.3l10.9,28.4h-4l-2.7-7.4h-12.8l-2.7,7.4h-4.2L114.5,760"/>
<path d="M112,839.3v10.4h6.2c2,0,3.6-0.4,4.5-1.3s1.5-2.2,1.5-4s-0.6-3-1.5-4s-2.5-1.3-4.5-1.3H112 M112,827.7v8.7h5.6
	c1.9,0,3.2-0.4,4.2-1.1c0.9-0.7,1.3-1.9,1.3-3.2c0-1.5-0.4-2.5-1.3-3.2s-2.2-1.1-4.2-1.1H112 M108,824.4h9.8c3,0,5.3,0.6,6.8,1.9
	c1.5,1.1,2.5,3,2.5,5.3c0,1.7-0.4,3.2-1.1,4.2s-2,1.7-3.6,1.9c1.9,0.4,3.4,1.3,4.3,2.7c1.1,1.3,1.5,2.9,1.5,4.9
	c0,2.7-0.9,4.5-2.7,5.8c-1.7,1.3-4.2,2-7.4,2H108L108,824.4"/>
<path d="M345,779.8l12.3-32h4.6l13.1,32h-4.8l-3.7-9.7H353l-3.5,9.7H345z M354.2,766.7H365l-3.3-8.8c-1-2.7-1.8-4.9-2.3-6.6
	c-0.4,2-1,4.1-1.7,6.1L354.2,766.7z"/>
<path d="M386,774.6v-8.8h-8.7v-3.7h8.7v-8.7h3.7v8.7h8.7v3.7h-8.7v8.8H386z"/>
<path d="M404.1,779.8v-32h12c2.4,0,4.4,0.3,5.9,1c1.5,0.6,2.6,1.6,3.5,3c0.8,1.3,1.3,2.8,1.3,4.2c0,1.4-0.4,2.7-1.1,3.9
	c-0.7,1.2-1.9,2.2-3.4,2.9c1.9,0.6,3.4,1.5,4.5,2.9c1,1.4,1.6,3,1.6,4.8c0,1.5-0.3,2.9-0.9,4.2c-0.6,1.3-1.4,2.3-2.3,3
	c-0.9,0.7-2.1,1.2-3.5,1.6c-1.4,0.4-3.1,0.5-5.2,0.5H404.1z M408.4,761.2h6.9c1.9,0,3.2-0.1,4-0.4c1.1-0.3,1.9-0.8,2.4-1.6
	c0.5-0.7,0.8-1.7,0.8-2.8c0-1.1-0.3-2-0.8-2.8s-1.2-1.4-2.2-1.7c-0.9-0.3-2.6-0.4-4.9-0.4h-6.4V761.2z M408.4,776h8
	c1.4,0,2.3-0.1,2.9-0.2c1-0.2,1.8-0.5,2.4-0.9c0.7-0.4,1.2-1,1.6-1.8c0.4-0.8,0.6-1.7,0.6-2.7c0-1.2-0.3-2.2-0.9-3.1
	s-1.5-1.5-2.5-1.9c-1.1-0.4-2.6-0.5-4.7-0.5h-7.4V776z"/>
<rect x="340.7" y="737.7" width="92.2" height="3.7"/>
<path d="M615.9,787.5l12.3-32h4.6l13.1,32H641l-3.7-9.7h-13.4l-3.5,9.7H615.9z M625.2,774.4H636l-3.3-8.8c-1-2.7-1.8-4.9-2.3-6.6
	c-0.4,2-1,4.1-1.7,6.1L625.2,774.4z"/>
<path d="M657,782.4v-8.8h-8.7v-3.7h8.7v-8.7h3.7v8.7h8.7v3.7h-8.7v8.8H657z"/>
<path d="M675.1,787.5v-32h12c2.4,0,4.4,0.3,5.9,1c1.5,0.6,2.6,1.6,3.5,3c0.8,1.3,1.3,2.8,1.3,4.2c0,1.4-0.4,2.7-1.1,3.9
	c-0.7,1.2-1.9,2.2-3.4,2.9c1.9,0.6,3.4,1.5,4.5,2.9c1,1.4,1.6,3,1.6,4.8c0,1.5-0.3,2.9-0.9,4.2c-0.6,1.3-1.4,2.3-2.3,3
	c-0.9,0.7-2.1,1.2-3.5,1.6c-1.4,0.4-3.1,0.5-5.2,0.5H675.1z M679.3,769h6.9c1.9,0,3.2-0.1,4-0.4c1.1-0.3,1.9-0.8,2.4-1.6
	c0.5-0.7,0.8-1.7,0.8-2.8c0-1.1-0.3-2-0.8-2.8s-1.2-1.4-2.2-1.7c-0.9-0.3-2.6-0.4-4.9-0.4h-6.4V769z M679.3,783.8h8
	c1.4,0,2.3-0.1,2.9-0.2c1-0.2,1.8-0.5,2.4-0.9c0.7-0.4,1.2-1,1.6-1.8c0.4-0.8,0.6-1.7,0.6-2.7c0-1.2-0.3-2.2-0.9-3.1
	s-1.5-1.5-2.5-1.9c-1.1-0.4-2.6-0.5-4.7-0.5h-7.4V783.8z"/>
<rect x="611" y="745.5" width="92.2" height="3.7"/>
<rect x="611" y="736.2" width="92.2" height="3.7"/>
</svg>
