<svg xmlns="http://www.w3.org/2000/svg" viewBox="0 0 565 178.6" enable-background="new 0 0 565 178.6"><path stroke="#000" stroke-miterlimit="10" d="M140.5 54.1c-.1 2.5-1.2 3.7-3.3 3.7h-47.4c-7 0-10.6 3.1-10.9 9.2l-3.5 66.5c-.5 7 1.8 10.5 6.9 10.5 9.2 0 17.7-3.1 25.6-9.4 7.9-6.3 12.7-14.1 14.6-23.6l-1.8-.9c-1.2 1.6-3.9 2.5-8 2.5-4 0-7.6-1.4-10.7-4.2-3.1-2.8-4.7-5.8-4.7-8.9.1-11.2 5.2-16.7 15.3-16.5 5.4.1 9.7 2.4 12.9 6.8 3.2 4.4 4.8 9.7 4.8 15.7-.4 13.9-5.7 25.3-15.9 34.1-9.1 7.7-19.5 11.5-31.3 11.5-3.9 0-7.5-1.6-10.8-4.7-3.3-3.2-4.8-7.1-4.6-11.8l3.3-67.6c.4-5.5-3-8.3-10.2-8.3-4.6 0-9.3 1.4-14 4.2-5.2 3.2-9.2 7.6-12.1 13.3l3.7 63.6c.1 3.4-1.3 6.8-4.2 10.1-3.3 3.4-7.1 5.1-11.5 5.1-7.1 0-10.6-3-10.6-9.1 0-.7.1-1.4.4-2.1.3-1.6 1.8-2.4 4.5-2.4 2.5 0 3.6.7 3.4 2-.7 3 .5 4.4 3.6 4.4 1.8 0 3.3-.6 4.6-1.9 1.3-1.2 1.9-2.8 1.8-4.5l-3.7-65.2c-.9-5.6-3.4-10.1-7.4-13.5-4-3.4-8.4-5.1-13.3-5.1h-2.6c-1.9 0-2.9-1.2-2.9-3.7 0-2.4 1.4-3.5 4.3-3.5h3.4c4.6 0 9.3 1.6 14 4.8 4.7 3.2 8.2 7.4 10.5 12.8 1.2-1.9 4.4-5.1 9.6-9.5 5.3-4.4 8.8-7.1 10.7-8 1.6-.6 3.4-.9 5.3-.9 5.6 0 10.9 2.5 15.8 7.5 3.7-4.4 8.7-6.6 15.1-6.6h29.5l-.5-2.2c-.3-3.6-2.2-6.9-5.6-9.9-3.4-3-7.3-4.5-11.7-4.5-1.8 0-6.8.2-15.2.5-9 .5-13.7.7-14.1.7-6.5.1-11.8-1.6-16-5.1-3.7-3.1-5.9-7-6.8-11.8-.8-5.5.1-8.2 3.1-8.2 1.3 0 2.6.4 3.7 1.3 1.2.9 1.7 1.9 1.6 2.9-.3 2-.4 3.5-.2 4.4 1.4 6.2 5.2 9.2 11.3 8.9 5.8-.3 15-.6 27.5-.9 16.3-.3 26.3 7.7 29.8 23.9h11.8c2.1 0 3.1 1.2 3.1 3.6zm.2-22.2c.1.7.2 1.4.2 2.2 0 4.8-2.3 9.3-6.8 13.4-.6.1-1.2.2-1.8.2-1.6 0-3-.4-4.1-1.3-1.1-.9-1.5-1.9-1.2-2.9 4.4-3.5 6.4-7.4 5.9-11.5-.9-6.6-6.6-12.2-17.2-16.8-11.6-5-26.3-7.5-44.3-7.5-13.6 0-25.3 2-35.2 5.9-10.9 4.1-16.8 9.7-17.7 16.6-.5 2.8 1.1 5.5 4.7 8s7.4 3.7 11.6 3.7c-.8 0 3.6-.5 13.3-1.6 2.3 1.5 3.4 3 3.4 4.5 0 .9-.4 1.7-1.3 2.6-4.7 1.1-8.7 1.6-12 1.6-6.6 0-12.8-1.9-18.6-5.7-6.3-4.1-9.3-8.8-8.9-14 1.2-19.2 21.1-28.8 59.6-28.8 18 0 33.9 3.1 47.8 9.3 13.9 6.1 21.4 13.5 22.6 22.1zm-18.4 67.8c-1.1-6.5-4.4-9.7-9.9-9.7-2.2 0-4.1.7-5.7 2.2-1.5 1.5-2.3 3.3-2.3 5.5.1 5.2 2.9 7.8 8.2 7.8 2.9 0 6.2-1.9 9.7-5.8zM230.7 57.8h-4.4c-7.4 0-11.4 5.3-12 15.8l-2.6 42.7c4.7 3.7 8.7 8 12.1 13.1 4.3 6 6.4 11.5 6.4 16.3 0 6.2-4 9.4-12.1 9.4-4.7 0-8.6-1.8-11.7-5.5-3.1-3.7-4.5-7.6-4.3-11.7l1.5-19.1c-7.7-5.3-16.4-9.3-26.3-12 .4 2 .6 3.9.6 5.8 0 5.3-1.6 9.7-4.7 13.3-3.2 3.5-7.3 5.3-12.3 5.3-4.4 0-8.6-1.6-12.5-4.9-3.9-3.2-6.2-6.9-6.7-10.9-.1-1.2-.1-2.4-.1-3.5 0-10.2 5.2-15.3 15.6-15.3 2.4 0 4.9.2 7.6.5-6-4.1-11.9-8.3-17.8-12.4-6.5-4.7-10.1-9.7-10.8-15.1-.1-1.2-.2-2.3-.2-3.3 0-6.8 3.2-11.4 9.6-13.6 3.8-1.4 10.1-2.2 19-2.2h20.4c11.2 0 19 4.1 23.2 12.2 3.5-8.1 9-12.2 16.4-12.2h4.6c1.3 0 2.5.5 3.4 1.6 1 1.1 1.5 2.1 1.5 3.2-.1 1.7-1.2 2.5-3.4 2.5zm-24.4 15.8c-.3-4.5-2.2-8.2-5.7-11.2s-8.1-4.5-13.7-4.5h-21.3c-15.7 0-23.1 4-22.2 12 .4 3.5 4.5 8 12.4 13.3 9.5 6.2 15.6 11.4 18.5 15.8 12.1 2.8 22.1 7 29.7 12.6l2.3-38zm-36.7 31.2c-3.8-.4-6.9-.6-9.4-.6-7.9 0-11.5 3.6-10.5 10.8.3 2 1.3 3.8 3.2 5.4 1.8 1.5 4 2.3 6.6 2.3 1 0 1.9-.1 2.9-.2 5.1-1.2 7.7-5.3 7.7-12.4-.1-1.7-.3-3.4-.5-5.3zm52.6 38.3c-1.6-7-5.3-13.3-11.2-18.8l-.9 14c-.3 6.6 2.1 9.9 7.3 9.9 4 0 5.6-1.7 4.8-5.1zM406.5 57.8h-8.3c-9.5 0-14.5 5.7-15.3 17-.4 8.1-1.5 27.9-3.3 59.2-.1 1.2-.3 2.4-.4 3.7-.5 2.1-1.4 3.2-2.9 3.3-.9.1-2.2.1-3.7-.2-1.8-.3-3-.4-3.3-.4-12.4-.1-18.7 2.8-18.8 8.6-.1 5.5 4.1 8.3 12.6 8.3 5.3 0 9.7-1.9 13.3-5.6.7-.9 2-.8 3.7.2 3.8 1.8 10.7 7.2 20.8 16 2.4 2.1 3.5 4.8 3.5 8.2 0 1.3-.3 2-.9 2-.4 0-.8-.2-1.1-.6-2.2-2-6.4-5.3-12.6-9.8-6.5-4.9-10.1-7.4-10.8-7.5-4.7 2.8-9.5 4.1-14.2 4.1-5.6 0-10.7-1.5-15-4.5-4.4-3-6.5-6.7-6.4-10.9.1-6.4 2.7-10.6 7.7-12.6 3.7-1.5 10.9-2.3 21.5-2.3l1.9-38.8c-4.5-9.3-7.6-15.5-9.4-18.6-6.3-10.4-13-15.6-20.3-15.6-3.8 0-7.5 1.5-11.2 4.4-2.1 1.6-3.7 3.8-4.7 6.6 7 1.9 13.2 5.3 18.8 10.3 5.5 5 8.5 9.4 8.9 13.2.9 9.7-3.2 14.9-12.3 15.7-4.9.5-10.6-3.5-17.1-11.9-3.9 7.9-10 11.9-18.3 11.9-3.5 0-7-1.7-10.3-5.2-3.3-3.4-4.9-7.3-4.5-11.6.3-3.5 2-7.4 5.1-11.6 4.1-5.6 9.1-9.3 15.1-11.2-7.3-9.2-15-13.8-23.1-13.8h-12c-2.2 0-3.2-1.2-3.2-3.5v-.4c0-2.2.8-3.3 2.5-3.3h11c11.1 0 21.7 6.6 31.9 19.9 1.2-5.6 4.1-9.8 8.7-12.8 3.7-2.6 8-3.9 12.7-3.9 11.2 0 20.3 6.3 27.4 18.8 1.1 1.9 2.8 5.1 5.1 9.6.3-3.2.6-6.1.9-9 .6-7.6 3.2-13.5 8-17.6 3.7-3.3 7.7-4.9 12.2-4.9h9.1c2.7 0 4 1.5 4 4.6-.4 1.6-1.3 2.5-3 2.5zm-85.3 29.5c-.5-1.8-1.4-5-3-9.4-3.8 1.1-7.5 3.5-11 7.5-3.9 4.1-5.8 8-5.8 11.6 0 2 .8 3.7 2.3 5.1 1.5 1.3 3.2 2 5 2 3.3 0 6.2-1.4 8.8-4.2 2.6-2.8 3.9-6.1 3.9-9.7 0-.9-.1-1.9-.2-2.9zm27.7 6.8c-.2-2.4-2.5-5.3-7-8.9-4.5-3.5-9.3-6-14.5-7.5-.4 3.2-.2 6.5.5 9.7.9 3.7 2.9 7.3 6.2 10.7 3.3 3.5 6.2 5.2 8.9 5.2 4.6.2 6.6-2.9 5.9-9.2zM564.5 53c0 3.2-1.2 4.8-3.7 4.8h-6.4c-9.6 5.8-14.7 13.5-15.3 23-.1 2.8.3 7.1 1.1 12.7 1.6 9.1 2.4 14.4 2.5 16 1.2 9 1.6 16.6 1.3 22.7-.3 8.5-4 16-11 22.4-7 6.5-14.7 9.7-23.1 9.7-1.1 0-2.2-.7-3.6-2.2-1.3-1.5-2-2.7-2-3.8 0-1 .7-1.5 2.1-1.4 6.4.5 12.6-1.4 18.5-5.5 6.5-4.7 10.3-11.2 11.3-19.3.6-3.9.2-11.3-1.3-22.2l-2.1-14.2c-1-6.2-1.3-10.5-1.1-13.1.7-10.9 4.3-19.2 10.6-25h-43.2c-4.9 0-8.7 1.7-11.6 5.2-2.9 3.5-4.5 8-4.7 13.7l-1.6 33.7c3.7 4.7 7.2 10.3 10.2 17 3 6.3 4.8 11.6 5.5 15.8.5 3.5-.4 6.3-2.5 8.6-2.1 2.2-4.7 3.3-7.7 3.3-3.8 0-7.3-1.9-10.4-5.8-3.1-3.8-4.6-7.9-4.4-12.2l1.1-25.9c-1.3-1.8-4.1-4.5-8.4-8.1-7.3-6.2-15.2-9.3-23.7-9.3-5.3 0-10 1.3-14 3.9 11.5 6.7 17.2 13.8 17.2 21.3 0 3.5-1.2 6.5-3.5 8.8-2.4 2.3-5.4 3.4-9.1 3.4-3.9 0-7.6-1.4-11-4.2-3.9-3.1-6.2-7-7.1-11.7-.2-1.9-.3-3.8-.3-5.7 0-7.3 2.7-13.1 8-17.3 4.9-3.9 11.2-5.9 18.7-5.9 10 0 18.7 3.2 26.3 9.5 1.6 1.2 4.4 3.2 8.3 6.2l1.1-28.6c-.3-4.5-2.2-8.2-5.5-11.1-3.6-3.1-8.2-4.6-13.8-4.6h-50.9c-2.7 0-4-.8-4-2.5.1-3.2 1.2-4.8 3.3-4.8h49.4c10.4 0 18.5 3.7 24.1 11.1 4.3-7.4 10.7-11.1 19.2-11.1h63.6c2.4 0 3.5.8 3.5 2.3v.4zm-128.2 63.1c-.7-4.9-5.3-9.1-13.8-12.6-1.8 3.3-2.4 7.3-1.8 11.7.5 2.6 1.7 4.8 3.7 6.5 2 1.7 4 2.6 5.9 2.6 1.8 0 3.3-.7 4.6-2.2 1.3-1.5 1.8-3.5 1.4-6zm53.1 27.1c-.9-6.8-3.9-14.1-9.1-22-.4 2.4-.8 8.6-1.1 18.6-.3 2.2.2 4.1 1.3 5.7 1.1 1.6 2.6 2.5 4.5 2.5 3.4 0 4.8-1.6 4.4-4.8z" fill="none"/></svg>