<?xml version="1.0" encoding="utf-8"?>
<!-- Generator: Adobe Illustrator 17.1.0, SVG Export Plug-In . SVG Version: 6.00 Build 0)  -->
<!DOCTYPE svg PUBLIC "-//W3C//DTD SVG 1.1//EN" "http://www.w3.org/Graphics/SVG/1.1/DTD/svg11.dtd">
<svg version="1.1" id="Layer_1" xmlns="http://www.w3.org/2000/svg" xmlns:xlink="http://www.w3.org/1999/xlink" x="0px" y="0px"
	 viewBox="-0.2 143 632 193.8" enable-background="new -0.2 143 632 193.8" xml:space="preserve">
<path fill="none" stroke="#000000" stroke-width="6" d="M208.5,146c21.1,36.4,26,63.9,26,93.9c0,36.4-9.3,64.5-26,93.9
	c65.9,0,166.8-31.5,203.8-91.9C375,185.6,273.3,146,208.5,146L208.5,146z"/>
<path fill="none" stroke="#000000" stroke-width="6" stroke-linecap="round" stroke-linejoin="round" d="M184,146
	c21.1,36.4,26,63.9,26,93.9c0,36.4-9.3,64.5-26,93.9"/>
<path fill="none" stroke="#000000" stroke-width="6" stroke-linejoin="round" d="M439.5,241.4c0,7.2-5.8,13.3-12.7,13.3
	s-12.7-5.8-12.7-13.3c0-7.2,5.8-13.3,12.7-13.3S439.5,233.9,439.5,241.4z"/>
<path fill="none" stroke="#000000" stroke-width="6" d="M583.2,241.4H438.3"/>
<path fill="none" stroke="#000000" stroke-width="6" d="M203.9,190.3H59.1"/>
<path fill="none" stroke="#000000" stroke-width="6" d="M203.9,289.4H59.1"/>
<path d="M20.1,174.1L12,195.7h16.2L20.1,174.1 M16.6,168.3h6.6L40,211.9h-6.1l-4-11.3H10.2l-4,11.3h-6.4L16.6,168.3"/>
<path d="M12.5,290.3v15.9H22c3.2,0,5.5-0.6,6.9-2s2.3-3.5,2.3-6.1s-0.9-4.6-2.3-6.1c-1.4-1.4-3.8-2-6.9-2h-9.5 M12.5,272.3v13.3h8.7
	c2.9,0,4.9-0.6,6.4-1.7c1.4-1.2,2-2.9,2-4.9c0-2.3-0.6-3.8-2-4.9c-1.4-1.2-3.5-1.7-6.4-1.7L12.5,272.3 M6.8,267.4h15
	c4.6,0,8.1,0.9,10.4,2.9c2.3,1.7,3.8,4.6,3.8,8.1c0,2.6-0.6,4.9-1.7,6.4s-3.2,2.6-5.5,2.9c2.9,0.6,5.2,2,6.6,4
	c1.7,2,2.3,4.3,2.3,7.5c0,4-1.4,6.9-4,9c-2.6,2-6.4,3.2-11.3,3.2H6.8V267.4"/>
<path d="M608.1,218.9h23.7v4.8h-18v14.6h16.7v4.7h-16.7v20h-5.7V218.9z"/>
</svg>
