<?xml version="1.0" encoding="utf-8"?>
<!-- Generator: Adobe Illustrator 17.1.0, SVG Export Plug-In . SVG Version: 6.00 Build 0)  -->
<!DOCTYPE svg PUBLIC "-//W3C//DTD SVG 1.1//EN" "http://www.w3.org/Graphics/SVG/1.1/DTD/svg11.dtd">
<svg version="1.1" id="Layer_1" xmlns="http://www.w3.org/2000/svg" xmlns:xlink="http://www.w3.org/1999/xlink" x="0px" y="0px"
	 viewBox="-83.4 735.5 516.6 270.4" enable-background="new -83.4 735.5 516.6 270.4" xml:space="preserve">
<path fill="none" stroke="#000000" stroke-width="3" stroke-linejoin="round" d="M68.9,789.7c0,2.4-1.9,4.3-4.2,4.3
	c-2.3,0-4.2-1.9-4.2-4.3c0-2.4,1.9-4.3,4.2-4.3C67.1,785.3,68.9,787.3,68.9,789.7z"/>
<path fill="none" stroke="#000000" stroke-width="3" d="M-5.8,805h-17.5v-32h17.5"/>
<path fill="none" stroke="#000000" stroke-width="3" d="M-23.3,789.4h-53.4"/>
<line fill="none" stroke="#000000" stroke-width="3" x1="-76.8" y1="755.2" x2="-76.8" y2="1005.9"/>
<line fill="none" stroke="#000000" stroke-width="3" x1="-47.7" y1="755.2" x2="-47.7" y2="1005.9"/>
<path fill="none" stroke="#000000" stroke-width="3" stroke-linejoin="round" d="M213.7,833.2c0,2.4-1.9,4.3-4.2,4.3
	c-2.3,0-4.2-1.9-4.2-4.3s1.9-4.3,4.2-4.3C211.9,828.7,213.7,830.7,213.7,833.2z"/>
<path fill="none" stroke="#000000" stroke-width="3" d="M279.9,833h-66.1"/>
<path fill="none" stroke="#000000" stroke-width="3" stroke-linejoin="round" d="M125.7,966c0,2.4-1.9,4.3-4.2,4.3s-4.2-1.9-4.2-4.3
	c0-2.4,1.9-4.3,4.2-4.3C123.9,961.5,125.7,963.5,125.7,966z"/>
<line fill="none" stroke="#000000" stroke-width="3" x1="-76.8" y1="949.2" x2="50.8" y2="949.2"/>
<line fill="none" stroke="#000000" stroke-width="3" x1="-47.7" y1="981.3" x2="50.9" y2="981.3"/>
<path fill="none" stroke="#000000" stroke-width="3" stroke-linejoin="round" d="M354.5,849.6c0,2.4-1.9,4.3-4.2,4.3
	c-2.3,0-4.2-1.9-4.2-4.3s1.9-4.3,4.2-4.3C352.7,845.2,354.5,847.1,354.5,849.6z"/>
<path fill="none" stroke="#000000" stroke-width="3" d="M417.5,849.4h-62.9"/>
<path fill="none" stroke="#000000" stroke-width="3" stroke-linejoin="round" d="M68.9,874.6c0,2.4-1.9,4.3-4.2,4.3
	c-2.3,0-4.2-1.9-4.2-4.3c0-2.4,1.9-4.3,4.2-4.3C67.1,870.2,68.9,872.2,68.9,874.6z"/>
<path fill="none" stroke="#000000" stroke-width="3" d="M-5.8,889.9h-17.5v-32h17.5"/>
<path fill="none" stroke="#000000" stroke-width="3" d="M-23.3,874.2h-23.5"/>
<text transform="matrix(1 0 0 1 319.2227 814.3291)" font-family="'ArialMT'" font-size="16.791">(A.B).(A.B)</text>
<rect x="323.2" y="785.8" width="75.8" height="2.3"/>
<path d="M-76.8,738.3l-2.6,7h5.3L-76.8,738.3 M-77.9,736.4h2.2l5.5,14.1h-2l-1.4-3.7H-80l-1.4,3.7h-2L-77.9,736.4"/>
<path d="M89.9,767l-2.6,7h5.3L89.9,767 M88.8,765.1H91l5.5,14.1h-2l-1.4-3.7h-6.4l-1.4,3.7h-2L88.8,765.1"/>
<path d="M425.5,843h7.7v1.6h-5.9v4.7h5.4v1.6h-5.4v6.5h-1.9L425.5,843L425.5,843z"/>
<path d="M-52.8,751.4v-15.9h6c1.2,0,2.2,0.2,2.9,0.5c0.7,0.3,1.3,0.8,1.7,1.5c0.4,0.7,0.6,1.4,0.6,2.1s-0.2,1.4-0.6,1.9
	c-0.4,0.6-1,1.1-1.7,1.5c1,0.3,1.7,0.8,2.3,1.5c0.5,0.7,0.8,1.5,0.8,2.4c0,0.7-0.2,1.5-0.5,2.1c-0.3,0.6-0.7,1.1-1.2,1.5
	c-0.5,0.3-1.1,0.6-1.7,0.8c-0.7,0.2-1.6,0.3-2.6,0.3L-52.8,751.4L-52.8,751.4z M-50.7,742.1h3.4c1,0,1.6-0.1,2-0.2
	c0.5-0.2,1-0.5,1.2-0.8c0.2-0.3,0.4-0.8,0.4-1.4c0-0.5-0.1-1-0.4-1.4c-0.3-0.4-0.6-0.7-1.1-0.8c-0.5-0.1-1.3-0.2-2.4-0.2h-3.2
	L-50.7,742.1L-50.7,742.1z M-50.7,749.5h4c0.7,0,1.1-0.1,1.4-0.1c0.5-0.1,0.9-0.2,1.2-0.5c0.3-0.2,0.6-0.5,0.8-0.9
	c0.2-0.4,0.3-0.8,0.3-1.4s-0.2-1.1-0.5-1.6c-0.3-0.5-0.7-0.7-1.3-1c-0.6-0.2-1.4-0.3-2.3-0.3h-3.7L-50.7,749.5L-50.7,749.5z"/>
<path d="M84,866.5v-15.9h6c1.2,0,2.2,0.2,2.9,0.5s1.3,0.8,1.7,1.5c0.4,0.7,0.6,1.4,0.6,2.1c0,0.7-0.2,1.4-0.6,1.9
	c-0.4,0.6-1,1.1-1.7,1.5c1,0.3,1.7,0.8,2.3,1.5c0.5,0.7,0.8,1.5,0.8,2.4c0,0.7-0.2,1.5-0.5,2.1c-0.3,0.6-0.7,1.1-1.2,1.5
	c-0.5,0.3-1.1,0.6-1.7,0.8c-0.7,0.2-1.6,0.3-2.6,0.3L84,866.5C84,866.4,84,866.5,84,866.5z M86.1,857.3h3.4c1,0,1.6-0.1,2-0.2
	c0.5-0.2,1-0.5,1.2-0.8c0.2-0.3,0.4-0.8,0.4-1.4c0-0.5-0.1-1-0.4-1.4c-0.3-0.4-0.6-0.7-1.1-0.8c-0.5-0.2-1.3-0.2-2.4-0.2H86
	L86.1,857.3L86.1,857.3z M86.1,864.6h4c0.7,0,1.1-0.1,1.4-0.1c0.5-0.1,0.9-0.2,1.2-0.5c0.3-0.2,0.6-0.5,0.8-0.9
	c0.2-0.4,0.3-0.8,0.3-1.4c0-0.6-0.2-1.1-0.5-1.6s-0.7-0.7-1.3-1c-0.6-0.2-1.4-0.3-2.3-0.3H86L86.1,864.6L86.1,864.6z"/>
<rect x="323.2" y="790.8" width="29.9" height="2.3"/>
<rect x="340.3" y="796.6" width="12.8" height="2.3"/>
<rect x="364.1" y="796.6" width="34.9" height="2.3"/>
<text transform="matrix(1 0 0 1 164.5493 957.9541)" font-family="'ArialMT'" font-size="16.791">A.B</text>
<rect x="162.3" y="940.5" width="31.5" height="2.3"/>
<text transform="matrix(1 0 0 1 219.7358 817.3447)" font-family="'ArialMT'" font-size="16.791">(A.B)</text>
<rect x="224.8" y="793.9" width="28.9" height="2.3"/>
<rect x="240.8" y="799.6" width="12.8" height="2.3"/>
<rect x="224.8" y="799.6" width="12.8" height="2.3"/>
<rect x="323.2" y="796.4" width="12.8" height="2.3"/>
<rect x="83.6" y="758.7" width="12.8" height="2.3"/>
<rect x="83.6" y="843.7" width="12.8" height="2.3"/>
<polyline fill="none" stroke="#000000" stroke-width="3" points="68.9,789.5 109.2,789.5 109.2,816.4 138.9,816.4 "/>
<polyline fill="none" stroke="#000000" stroke-width="3" points="138.9,848.5 109.2,848.5 109.2,874.4 68.9,874.4 "/>
<polyline fill="none" stroke="#000000" stroke-width="3" points="125.8,965.8 250,965.8 250,864.9 279.8,864.9 "/>
<path fill="none" stroke="#000000" stroke-width="3" stroke-linejoin="round" d="M279.8,822.2c15.1,0.1,30.1-0.3,45.1,0.6
	c6.5,1.1,9.2,2.8,13.1,6.4c6.2,6.1,8.5,15.4,7.7,23.7c-0.4,6.4-3.5,13.5-9.1,17.8c-3.2,2.4-6.9,4-11.8,4.9c-9,1.2-18.2,0.7-27.3,0.8
	c-5.9,0-11.8,0-17.7,0.2L279.8,822.2L279.8,822.2z"/>
<path fill="none" stroke="#000000" stroke-width="3" stroke-linejoin="round" d="M138.9,805.8c15.1,0.1,30.1-0.3,45.1,0.6
	c6.5,1.1,9.2,2.8,13.1,6.4c6.2,6.1,8.5,15.4,7.7,23.7c-0.4,6.4-3.5,13.5-9.1,17.8c-3.2,2.4-6.9,4-11.8,4.9c-9,1.2-18.2,0.7-27.3,0.8
	c-5.9,0-11.8,0-17.7,0.2L138.9,805.8L138.9,805.8z"/>
<path fill="none" stroke="#000000" stroke-width="3" stroke-linejoin="round" d="M-5.8,762.3c15.1,0.1,30.1-0.3,45.1,0.6
	c6.5,1.1,9.2,2.8,13.1,6.4c6.2,6.1,8.5,15.4,7.7,23.7c-0.4,6.4-3.5,13.5-9.1,17.8c-3.2,2.4-6.9,4-11.8,4.9c-9,1.2-18.2,0.7-27.3,0.8
	c-5.9,0-11.8,0-17.7,0.2L-5.8,762.3L-5.8,762.3z"/>
<path fill="none" stroke="#000000" stroke-width="3" stroke-linejoin="round" d="M-5.8,847.2c15.1,0.1,30.1-0.3,45.1,0.6
	c6.5,1.1,9.2,2.8,13.1,6.4c6.2,6.1,8.5,15.4,7.7,23.7c-0.4,6.4-3.5,13.5-9.1,17.8c-3.2,2.4-6.9,4-11.8,4.9c-9,1.2-18.2,0.7-27.3,0.8
	c-5.9,0-11.8,0-17.7,0.2L-5.8,847.2L-5.8,847.2z"/>
<path fill="none" stroke="#000000" stroke-width="3" stroke-linejoin="round" d="M50.8,938.6c15.1,0.1,30.1-0.3,45.1,0.6
	c6.5,1.1,9.2,2.8,13.1,6.4c6.2,6.1,8.5,15.4,7.7,23.7c-0.4,6.4-3.5,13.5-9.1,17.8c-3.2,2.4-6.9,4-11.8,4.9c-9,1.2-18.2,0.7-27.3,0.8
	c-5.9,0-11.8,0-17.7,0.2L50.8,938.6L50.8,938.6z"/>
</svg>
