<?xml version="1.0" encoding="utf-8"?>
<!-- Generator: Adobe Illustrator 17.1.0, SVG Export Plug-In . SVG Version: 6.00 Build 0)  -->
<!DOCTYPE svg PUBLIC "-//W3C//DTD SVG 1.1//EN" "http://www.w3.org/Graphics/SVG/1.1/DTD/svg11.dtd">
<svg version="1.1" id="Layer_1" xmlns="http://www.w3.org/2000/svg" xmlns:xlink="http://www.w3.org/1999/xlink" x="0px" y="0px"
	 viewBox="-0.2 138.4 631.5 203.1" enable-background="new -0.2 138.4 631.5 203.1" xml:space="preserve">
<path fill="none" stroke="#000000" stroke-width="6" d="M218.5,141.4c22.1,38.2,27.3,66.9,27.3,98.4c0,38.2-9.7,67.5-27.3,98.4
	c69.1,0,174.8-33,213.5-96.3C393,182.9,286.4,141.4,218.5,141.4L218.5,141.4z"/>
<path fill="none" stroke="#000000" stroke-width="6" stroke-linecap="round" stroke-linejoin="round" d="M192.8,141.7
	c22.1,38.2,27.3,66.9,27.3,98.4c0,38.2-9.7,67.5-27.3,98.4"/>
<path fill="none" stroke="#000000" stroke-width="6" d="M580.2,241.7H428.4"/>
<path fill="none" stroke="#000000" stroke-width="6" d="M213.7,187.8H61.9"/>
<path fill="none" stroke="#000000" stroke-width="6" d="M213.7,291.7H61.9"/>
<path d="M21,171.1l-8.5,22.7h17L21,171.1 M17.4,165h7L42,210.7h-6.4L31.3,199H10.7l-4.2,11.8h-6.7L17.4,165"/>
<path d="M13.1,292.9v16.7h10c3.3,0,5.8-0.6,7.3-2.1s2.4-3.6,2.4-6.4s-0.9-4.8-2.4-6.4s-3.9-2.1-7.3-2.1h-10 M13.1,274.1V288h9.1
	c3,0,5.1-0.6,6.7-1.8s2.1-3,2.1-5.1c0-2.4-0.6-3.9-2.1-5.1s-3.6-1.8-6.7-1.8h-9.1 M7.1,268.9h15.8c4.8,0,8.5,0.9,10.9,3
	c2.4,1.8,3.9,4.8,3.9,8.5c0,2.7-0.6,5.1-1.8,6.7c-1.2,1.5-3.3,2.7-5.8,3c3,0.6,5.5,2.1,7,4.2c1.8,2.1,2.4,4.5,2.4,7.9
	c0,4.2-1.5,7.3-4.2,9.4s-6.7,3.3-11.8,3.3H7.1V268.9"/>
<path d="M606.4,217.9h24.9v5h-18.9v15.3h17.5v4.9h-17.5V264h-6V217.9z"/>
</svg>
