<?xml version="1.0" encoding="utf-8"?>
<!-- Generator: Adobe Illustrator 17.1.0, SVG Export Plug-In . SVG Version: 6.00 Build 0)  -->
<!DOCTYPE svg PUBLIC "-//W3C//DTD SVG 1.1//EN" "http://www.w3.org/Graphics/SVG/1.1/DTD/svg11.dtd">
<svg version="1.1" id="Layer_1" xmlns="http://www.w3.org/2000/svg" xmlns:xlink="http://www.w3.org/1999/xlink" x="0px" y="0px"
	 viewBox="-56.4 802.3 640.1 294.5" enable-background="new -56.4 802.3 640.1 294.5" xml:space="preserve">
<path fill="none" stroke="#000000" stroke-width="3" d="M27.8,881.6c7.4,12.8,9.1,22.4,9.1,33c0,12.8-3.2,22.7-9.1,33
	c23.1,0,58.5-11.1,71.5-32.2C86.2,895.5,50.6,881.6,27.8,881.6L27.8,881.6z"/>
<path fill="none" stroke="#000000" stroke-width="3" stroke-linejoin="round" d="M108.8,915.3c0,2.6-2.1,4.7-4.5,4.7
	s-4.5-2.1-4.5-4.7c0-2.6,2.1-4.7,4.5-4.7C106.9,910.7,108.8,912.8,108.8,915.3z"/>
<path fill="none" stroke="#000000" stroke-width="3" d="M34.2,932H8.7v-34.8h25.4"/>
<path fill="none" stroke="#000000" stroke-width="3" d="M8.7,915h-25.4"/>
<line fill="none" stroke="#000000" stroke-width="3" x1="108.9" y1="915.2" x2="174.2" y2="915.2"/>
<path fill="none" stroke="#000000" stroke-width="3" d="M450.7,934.6c7.4,12.8,9.1,22.4,9.1,33c0,12.8-3.2,22.7-9.1,33
	c23.1,0,58.5-11.1,71.5-32.2C509.1,948.4,473.5,934.6,450.7,934.6L450.7,934.6z"/>
<path fill="none" stroke="#000000" stroke-width="3" stroke-linejoin="round" d="M531.8,968.3c0,2.6-2.1,4.7-4.5,4.7
	s-4.5-2.1-4.5-4.7c0-2.6,2.1-4.7,4.5-4.7C529.8,963.6,531.8,965.7,531.8,968.3z"/>
<path fill="none" stroke="#000000" stroke-width="3" d="M457.1,984.9h-25.4v-34.8h25.4"/>
<line fill="none" stroke="#000000" stroke-width="3" x1="531.8" y1="968.1" x2="568.8" y2="968.1"/>
<path fill="none" stroke="#000000" stroke-width="3" d="M27.8,985c7.4,12.8,9.1,22.4,9.1,33c0,12.8-3.2,22.7-9.1,33
	c23.1,0,58.5-11.1,71.5-32.2C86.2,998.8,50.6,985,27.8,985L27.8,985z"/>
<path fill="none" stroke="#000000" stroke-width="3" stroke-linejoin="round" d="M108.8,1018.7c0,2.6-2.1,4.7-4.5,4.7
	s-4.5-2.1-4.5-4.7c0-2.6,2.1-4.7,4.5-4.7C106.9,1014,108.8,1016.1,108.8,1018.7z"/>
<path fill="none" stroke="#000000" stroke-width="3" d="M34.2,1035.3H8.7v-34.8h25.4"/>
<path fill="none" stroke="#000000" stroke-width="3" d="M8.7,1018.3h-58"/>
<line fill="none" stroke="#000000" stroke-width="3" x1="108.9" y1="1018.5" x2="174.2" y2="1018.5"/>
<path fill="none" stroke="#000000" stroke-width="3" d="M167.7,1003c7.4,12.8,9.1,22.4,9.1,33c0,12.8-3.2,22.7-9.1,33
	c23.1,0,58.5-11.1,71.5-32.2C226.2,1016.9,190.6,1003,167.7,1003L167.7,1003z"/>
<path fill="none" stroke="#000000" stroke-width="3" stroke-linejoin="round" d="M248.8,1036.8c0,2.6-2.1,4.7-4.5,4.7
	s-4.5-2.1-4.5-4.7c0-2.6,2.1-4.7,4.5-4.7C246.9,1032,248.8,1034.1,248.8,1036.8z"/>
<path fill="none" stroke="#000000" stroke-width="3" d="M167.7,865.1c7.4,12.8,9.1,22.4,9.1,33c0,12.8-3.2,22.7-9.1,33
	c23.1,0,58.5-11.1,71.5-32.2C226.2,878.9,190.6,865.1,167.7,865.1L167.7,865.1z"/>
<path fill="none" stroke="#000000" stroke-width="3" stroke-linejoin="round" d="M248.8,898.8c0,2.6-2.1,4.7-4.5,4.7
	s-4.5-2.1-4.5-4.7c0-2.6,2.1-4.7,4.5-4.7C246.9,894,248.8,896.1,248.8,898.8z"/>
<path fill="none" stroke="#000000" stroke-width="3" d="M307.7,934.7c7.4,12.8,9.1,22.4,9.1,33c0,12.8-3.2,22.7-9.1,33
	c23.1,0,58.5-11.1,71.5-32.2C366.2,948.6,330.6,934.7,307.7,934.7L307.7,934.7z"/>
<path fill="none" stroke="#000000" stroke-width="3" stroke-linejoin="round" d="M388.8,968.5c0,2.6-2.1,4.7-4.5,4.7
	s-4.5-2.1-4.5-4.7c0-2.6,2.1-4.7,4.5-4.7C386.9,963.7,388.8,965.8,388.8,968.5z"/>
<path fill="none" stroke="#000000" stroke-width="3" d="M431.7,968.2h-42.8"/>
<line fill="none" stroke="#000000" stroke-width="3" x1="-49.3" y1="823.6" x2="-49.3" y2="1095.7"/>
<line fill="none" stroke="#000000" stroke-width="3" x1="-17.7" y1="823.6" x2="-17.7" y2="1095.7"/>
<polyline fill="none" stroke="#000000" stroke-width="3" points="248.9,898.6 275.5,898.6 275.5,950.3 314.6,950.3 "/>
<polyline fill="none" stroke="#000000" stroke-width="3" points="248.9,1036.6 275.5,1036.6 275.5,985.1 314.6,985.1 "/>
<polyline fill="none" stroke="#000000" stroke-width="3" points="174.2,1053.4 123.3,1053.4 123.3,1067.9 -17.7,1067.9 "/>
<polyline fill="none" stroke="#000000" stroke-width="3" points="174.2,880.6 123.3,880.6 123.3,865.1 -49.3,865.1 "/>
<rect x="241.5" y="858.9" width="37.9" height="2.4"/>
<rect x="342.3" y="899.2" width="96.4" height="2.4"/>
<rect x="265.5" y="865.1" width="13.9" height="2.4"/>
<rect x="342.3" y="904.7" width="37.9" height="2.4"/>
<rect x="366.3" y="910.9" width="13.9" height="2.4"/>
<rect x="230.8" y="992.1" width="37.9" height="2.4"/>
<rect x="230.8" y="998.3" width="13.9" height="2.4"/>
<rect x="400.8" y="904.5" width="37.9" height="2.4"/>
<rect x="400.8" y="910.7" width="13.9" height="2.4"/>
<rect x="476.6" y="1015.2" width="96.4" height="2.4"/>
<rect x="476.6" y="1009.8" width="96.4" height="2.4"/>
<rect x="476.6" y="1020.7" width="37.9" height="2.4"/>
<rect x="500.6" y="1026.8" width="13.9" height="2.4"/>
<rect x="535.1" y="1020.5" width="37.9" height="2.4"/>
<rect x="535.1" y="1026.7" width="13.9" height="2.4"/>
<rect x="479" y="1067.5" width="37.9" height="2.4"/>
<rect x="503" y="1073.6" width="13.9" height="2.4"/>
<rect x="537.5" y="1067.2" width="37.9" height="2.4"/>
<rect x="537.5" y="1073.4" width="13.9" height="2.4"/>
<rect x="132.5" y="986.3" width="13.9" height="2.4"/>
<rect x="132.1" y="923.8" width="13.9" height="2.4"/>
<path d="M-49.3,805.2l-2.9,7.6h5.7L-49.3,805.2 M-50.5,803.2h2.4l5.9,15.3h-2.1l-1.5-4h-6.9l-1.5,4h-2.2L-50.5,803.2"/>
<path d="M139.4,995.4l-2.9,7.6h5.7L139.4,995.4 M138.2,993.4h2.4l5.9,15.3h-2.1l-1.5-4H136l-1.5,4h-2.2L138.2,993.4"/>
<path d="M575.4,960.7h8.3v1.7h-6.4v5.1h5.8v1.7h-5.8v7h-2L575.4,960.7L575.4,960.7z"/>
<path d="M-23.2,819.5v-17.2h6.4c1.3,0,2.4,0.2,3.2,0.5c0.8,0.4,1.4,0.9,1.9,1.6c0.4,0.7,0.7,1.5,0.7,2.2s-0.2,1.5-0.6,2.1
	c-0.4,0.6-1,1.2-1.8,1.6c1,0.3,1.8,0.9,2.4,1.6c0.5,0.7,0.9,1.6,0.9,2.6c0,0.8-0.2,1.6-0.5,2.2c-0.4,0.7-0.8,1.2-1.3,1.6
	s-1.2,0.7-1.9,0.9c-0.8,0.2-1.7,0.3-2.8,0.3L-23.2,819.5L-23.2,819.5z M-20.9,809.5h3.7c1,0,1.8-0.1,2.2-0.2c0.5-0.2,1-0.5,1.3-0.9
	c0.2-0.4,0.4-0.9,0.4-1.5c0-0.5-0.1-1.1-0.4-1.5c-0.3-0.4-0.7-0.7-1.2-0.9s-1.4-0.2-2.6-0.2h-3.4C-20.9,804.3-20.9,809.5-20.9,809.5
	z M-20.9,817.4h4.3c0.7,0,1.2-0.1,1.5-0.1c0.5-0.1,1-0.2,1.3-0.5c0.4-0.2,0.6-0.5,0.9-1s0.4-0.9,0.4-1.5s-0.2-1.2-0.5-1.7
	c-0.4-0.5-0.8-0.8-1.4-1c-0.6-0.2-1.5-0.3-2.5-0.3h-3.9v6.1H-20.9z"/>
<path d="M132.5,948.4v-17.2h6.4c1.3,0,2.4,0.2,3.2,0.5c0.8,0.4,1.4,0.9,1.9,1.6c0.4,0.7,0.7,1.5,0.7,2.2s-0.2,1.5-0.6,2.1
	c-0.4,0.6-1,1.2-1.8,1.6c1,0.3,1.8,0.9,2.4,1.6c0.5,0.7,0.9,1.6,0.9,2.6c0,0.8-0.2,1.6-0.5,2.2c-0.4,0.7-0.8,1.2-1.3,1.6
	c-0.5,0.4-1.2,0.7-1.9,0.9c-0.8,0.2-1.7,0.3-2.8,0.3L132.5,948.4L132.5,948.4z M134.8,938.4h3.7c1,0,1.8-0.1,2.2-0.2
	c0.5-0.2,1-0.5,1.3-0.9s0.4-0.9,0.4-1.5c0-0.5-0.1-1.1-0.4-1.5c-0.3-0.4-0.7-0.7-1.2-0.9s-1.4-0.2-2.6-0.2h-3.4V938.4L134.8,938.4z
	 M134.8,946.4h4.3c0.7,0,1.2-0.1,1.5-0.1c0.5-0.1,1-0.2,1.3-0.5c0.4-0.2,0.6-0.5,0.9-1c0.2-0.4,0.4-0.9,0.4-1.5s-0.2-1.2-0.5-1.7
	c-0.4-0.5-0.8-0.8-1.4-1c-0.6-0.2-1.5-0.3-2.5-0.3h-3.9L134.8,946.4L134.8,946.4z"/>
<path d="M243.7,884.4l5-13.1h1.9l5.3,13.1H254l-1.5-3.9H247l-1.5,3.9H243.7z M247.5,879h4.4l-1.3-3.6c-0.4-1.1-0.7-2-0.9-2.7
	c-0.2,0.9-0.4,1.6-0.7,2.5L247.5,879z"/>
<path d="M260.4,882.2v-3.5h-3.5v-1.5h3.5v-3.5h1.5v3.5h3.5v1.5h-3.5v3.6L260.4,882.2L260.4,882.2z"/>
<path d="M267.8,884.4v-13.1h4.9c1,0,1.8,0.1,2.4,0.4c0.5,0.3,1.1,0.7,1.4,1.2c0.4,0.5,0.5,1.1,0.5,1.7c0,0.5-0.1,1.1-0.4,1.6
	s-0.8,0.9-1.4,1.2c0.8,0.2,1.4,0.6,1.8,1.2c0.4,0.5,0.6,1.2,0.6,2c0,0.6-0.1,1.2-0.4,1.7c-0.2,0.5-0.5,0.9-1,1.2s-0.9,0.5-1.5,0.7
	c-0.5,0.1-1.3,0.2-2.1,0.2L267.8,884.4L267.8,884.4z M269.6,876.8h2.8c0.8,0,1.3-0.1,1.6-0.1c0.4-0.1,0.8-0.4,1-0.7s0.3-0.7,0.3-1.2
	c0-0.4-0.1-0.8-0.3-1.2c-0.2-0.3-0.5-0.5-0.9-0.7c-0.4-0.1-1-0.2-2-0.2h-2.6v3.9h0.1V876.8z M269.6,882.8h3.2c0.5,0,1,0,1.2-0.1
	c0.4-0.1,0.7-0.2,1-0.4c0.2-0.2,0.5-0.4,0.7-0.7s0.2-0.7,0.2-1.1c0-0.5-0.1-0.9-0.4-1.3s-0.6-0.6-1-0.7c-0.4-0.1-1.1-0.2-1.9-0.2h-3
	L269.6,882.8L269.6,882.8z"/>
<path d="M342.3,934c-0.9-1.1-1.6-2.4-2.2-3.9s-0.9-3-0.9-4.6c0-1.4,0.2-2.8,0.7-4.1c0.5-1.5,1.3-3,2.5-4.5h1.2
	c-0.7,1.2-1.2,2.1-1.4,2.7c-0.4,0.8-0.7,1.7-0.9,2.6c-0.2,1.1-0.4,2.2-0.4,3.3c0,2.9,0.9,5.7,2.7,8.6L342.3,934L342.3,934z"/>
<path d="M344,930.2l5-13.1h1.9l5.3,13.1h-1.9l-1.5-3.9h-5.5l-1.5,3.9H344z M347.8,924.8h4.4l-1.3-3.6c-0.4-1.1-0.7-2-0.9-2.7
	c-0.2,0.9-0.4,1.6-0.7,2.5L347.8,924.8z"/>
<path d="M360.8,928.1v-3.6h-3.5V923h3.5v-3.5h1.5v3.5h3.5v1.5h-3.5v3.6H360.8z"/>
<path d="M368.2,930.2v-13.1h4.9c1,0,1.8,0.1,2.4,0.4c0.5,0.3,1.1,0.7,1.4,1.2c0.4,0.5,0.5,1.1,0.5,1.7c0,0.5-0.1,1.1-0.4,1.6
	s-0.8,0.9-1.4,1.2c0.8,0.2,1.4,0.6,1.8,1.2s0.6,1.2,0.6,2c0,0.6-0.1,1.2-0.4,1.7c-0.2,0.5-0.5,0.9-1,1.2c-0.4,0.3-0.9,0.5-1.5,0.7
	c-0.5,0.1-1.3,0.2-2.1,0.2L368.2,930.2L368.2,930.2z M370,922.6h2.8c0.8,0,1.3-0.1,1.6-0.1c0.4-0.1,0.8-0.4,1-0.7s0.3-0.7,0.3-1.2
	c0-0.4-0.1-0.8-0.3-1.2c-0.2-0.3-0.5-0.5-0.9-0.7c-0.4-0.1-1-0.2-2-0.2h-2.6v3.9h0.1V922.6z M370,928.6h3.2c0.5,0,1,0,1.2-0.1
	c0.4-0.1,0.7-0.2,1-0.4c0.2-0.2,0.5-0.4,0.7-0.7s0.2-0.7,0.2-1.1c0-0.5-0.1-0.9-0.4-1.3c-0.2-0.4-0.6-0.6-1-0.7s-1.1-0.2-1.9-0.2h-3
	L370,928.6L370,928.6z"/>
<path d="M381.3,934h-1.2c1.8-2.9,2.7-5.7,2.7-8.6c0-1.1-0.1-2.2-0.4-3.3c-0.2-0.9-0.5-1.8-0.9-2.6c-0.2-0.5-0.7-1.4-1.5-2.7h1.2
	c1.1,1.5,1.9,3,2.5,4.5c0.5,1.3,0.7,2.7,0.7,4.1c0,1.6-0.3,3.2-0.9,4.6C382.9,931.6,382.2,932.9,381.3,934z"/>
<path d="M389.7,928.1v-3.6h-3.5V923h3.5v-3.5h1.5v3.5h3.5v1.5h-3.5v3.6H389.7z"/>
<path d="M400,934c-0.9-1.1-1.6-2.4-2.2-3.9s-0.9-3-0.9-4.6c0-1.4,0.2-2.8,0.7-4.1c0.5-1.5,1.3-3,2.5-4.5h1.2
	c-0.7,1.2-1.2,2.1-1.4,2.7c-0.4,0.8-0.7,1.7-0.9,2.6c-0.2,1.1-0.4,2.2-0.4,3.3c0,2.9,0.9,5.7,2.7,8.6L400,934L400,934z"/>
<path d="M401.8,930.2l5-13.1h1.9l5.3,13.1h-1.9l-1.5-3.9h-5.5l-1.5,3.9H401.8z M405.6,924.8h4.4l-1.3-3.6c-0.4-1.1-0.7-2-0.9-2.7
	c-0.2,0.9-0.4,1.6-0.7,2.5L405.6,924.8z"/>
<path d="M418.6,928.1v-3.6H415V923h3.5v-3.5h1.5v3.5h3.5v1.5H420v3.6H418.6z"/>
<path d="M426,930.2v-13.1h4.9c1,0,1.8,0.1,2.4,0.4c0.5,0.3,1.1,0.7,1.4,1.2c0.4,0.5,0.5,1.1,0.5,1.7c0,0.5-0.1,1.1-0.4,1.6
	s-0.8,0.9-1.4,1.2c0.8,0.2,1.4,0.6,1.8,1.2c0.4,0.5,0.6,1.2,0.6,2c0,0.6-0.1,1.2-0.4,1.7c-0.2,0.5-0.5,0.9-1,1.2
	c-0.4,0.3-0.9,0.5-1.5,0.7c-0.5,0.1-1.3,0.2-2.1,0.2L426,930.2L426,930.2z M427.7,922.6h2.8c0.8,0,1.3-0.1,1.6-0.1
	c0.4-0.1,0.8-0.4,1-0.7s0.3-0.7,0.3-1.2c0-0.4-0.1-0.8-0.3-1.2c-0.2-0.3-0.5-0.5-0.9-0.7c-0.4-0.1-1-0.2-2-0.2h-2.6v3.9h0.1V922.6z
	 M427.7,928.6h3.2c0.5,0,1,0,1.2-0.1c0.4-0.1,0.7-0.2,1-0.4c0.2-0.2,0.5-0.4,0.7-0.7s0.2-0.7,0.2-1.1c0-0.5-0.1-0.9-0.4-1.3
	c-0.2-0.4-0.6-0.6-1-0.7s-1.1-0.2-1.9-0.2h-3L427.7,928.6L427.7,928.6z"/>
<path d="M439,934h-1.2c1.8-2.9,2.7-5.7,2.7-8.6c0-1.1-0.1-2.2-0.4-3.3c-0.2-0.9-0.5-1.8-0.9-2.6c-0.2-0.5-0.7-1.4-1.5-2.7h1.2
	c1.1,1.5,1.9,3,2.5,4.5c0.5,1.3,0.7,2.7,0.7,4.1c0,1.6-0.3,3.2-0.9,4.6C440.6,931.6,439.9,932.9,439,934z"/>
<path d="M233.3,1017.6l5-13.1h1.9l5.3,13.1h-1.9l-1.5-3.9h-5.5l-1.5,3.9H233.3z M237.1,1012.3h4.4l-1.3-3.6c-0.4-1.1-0.7-2-0.9-2.7
	c-0.2,0.9-0.4,1.6-0.7,2.5L237.1,1012.3z"/>
<path d="M250,1015.5v-3.6h-3.5v-1.5h3.5v-3.5h1.5v3.5h3.5v1.5h-3.5v3.6H250z"/>
<path d="M257.4,1017.6v-13.1h4.9c1,0,1.8,0.1,2.4,0.4c0.5,0.3,1.1,0.7,1.4,1.2c0.4,0.5,0.5,1.1,0.5,1.7c0,0.5-0.1,1.1-0.4,1.6
	s-0.8,0.9-1.4,1.2c0.8,0.2,1.4,0.6,1.8,1.2c0.4,0.5,0.6,1.2,0.6,2c0,0.6-0.1,1.2-0.4,1.7c-0.2,0.5-0.5,0.9-1,1.2
	c-0.4,0.3-0.9,0.5-1.5,0.7c-0.5,0.1-1.3,0.2-2.1,0.2L257.4,1017.6L257.4,1017.6z M259.2,1010h2.8c0.8,0,1.3-0.1,1.6-0.1
	c0.4-0.1,0.8-0.4,1-0.7s0.3-0.7,0.3-1.2c0-0.4-0.1-0.8-0.3-1.2c-0.2-0.3-0.5-0.5-0.9-0.7c-0.4-0.1-1-0.2-2-0.2h-2.6v3.9h0.1V1010z
	 M259.2,1016.1h3.2c0.5,0,1,0,1.2-0.1c0.4-0.1,0.7-0.2,1-0.4c0.2-0.2,0.5-0.4,0.7-0.7s0.2-0.7,0.2-1.1c0-0.5-0.1-0.9-0.4-1.3
	s-0.6-0.6-1-0.7c-0.4-0.1-1.1-0.2-1.9-0.2h-3L259.2,1016.1L259.2,1016.1z"/>
<path d="M476.5,1050c-0.9-1.1-1.6-2.4-2.2-3.9s-0.9-3-0.9-4.6c0-1.4,0.2-2.8,0.7-4.1c0.5-1.5,1.3-3,2.5-4.5h1.2
	c-0.7,1.2-1.2,2.1-1.4,2.7c-0.4,0.8-0.7,1.7-0.9,2.6c-0.2,1.1-0.4,2.2-0.4,3.3c0,2.9,0.9,5.7,2.7,8.6L476.5,1050L476.5,1050z"/>
<path d="M478.3,1046.2l5-13.1h1.9l5.3,13.1h-1.9l-1.5-3.9h-5.5l-1.5,3.9H478.3z M482,1040.8h4.4l-1.3-3.6c-0.4-1.1-0.7-2-0.9-2.7
	c-0.2,0.9-0.4,1.6-0.7,2.5L482,1040.8z"/>
<path d="M495,1044v-3.6h-3.5v-1.5h3.5v-3.5h1.5v3.5h3.5v1.5h-3.5v3.6H495z"/>
<path d="M502.4,1046.2v-13.1h4.9c1,0,1.8,0.1,2.4,0.4c0.5,0.3,1.1,0.7,1.4,1.2c0.4,0.5,0.5,1.1,0.5,1.7c0,0.5-0.1,1.1-0.4,1.6
	s-0.8,0.9-1.4,1.2c0.8,0.2,1.4,0.6,1.8,1.2c0.4,0.5,0.6,1.2,0.6,2c0,0.6-0.1,1.2-0.4,1.7c-0.2,0.5-0.5,0.9-1,1.2
	c-0.4,0.3-0.9,0.5-1.5,0.7c-0.5,0.1-1.3,0.2-2.1,0.2L502.4,1046.2L502.4,1046.2z M504.2,1038.6h2.8c0.8,0,1.3-0.1,1.6-0.1
	c0.4-0.1,0.8-0.4,1-0.7s0.3-0.7,0.3-1.2c0-0.4-0.1-0.8-0.3-1.2c-0.2-0.3-0.5-0.5-0.9-0.7c-0.4-0.1-1-0.2-2-0.2h-2.6v3.9h0.1V1038.6z
	 M504.2,1044.6h3.2c0.5,0,1,0,1.2-0.1c0.4-0.1,0.7-0.2,1-0.4c0.3-0.2,0.5-0.4,0.7-0.7s0.2-0.7,0.2-1.1c0-0.5-0.1-0.9-0.4-1.3
	c-0.2-0.4-0.6-0.6-1-0.7c-0.4-0.1-1.1-0.2-1.9-0.2h-3L504.2,1044.6L504.2,1044.6z"/>
<path d="M515.5,1050h-1.2c1.8-2.9,2.7-5.7,2.7-8.6c0-1.1-0.1-2.2-0.4-3.3c-0.2-0.9-0.5-1.8-0.9-2.6c-0.2-0.5-0.7-1.4-1.5-2.7h1.2
	c1.1,1.5,1.9,3,2.5,4.5c0.5,1.3,0.7,2.7,0.7,4.1c0,1.6-0.3,3.2-0.9,4.6C517.1,1047.6,516.4,1048.9,515.5,1050z"/>
<path d="M523.9,1044v-3.6h-3.5v-1.5h3.5v-3.5h1.5v3.5h3.5v1.5h-3.5v3.6H523.9z"/>
<path d="M534.3,1050c-0.9-1.1-1.6-2.4-2.2-3.9c-0.6-1.5-0.9-3-0.9-4.6c0-1.4,0.2-2.8,0.7-4.1c0.5-1.5,1.3-3,2.5-4.5h1.2
	c-0.7,1.2-1.2,2.1-1.4,2.7c-0.4,0.8-0.7,1.7-0.9,2.6c-0.2,1.1-0.4,2.2-0.4,3.3c0,2.9,0.9,5.7,2.7,8.6L534.3,1050L534.3,1050z"/>
<path d="M536,1046.2l5-13.1h1.9l5.3,13.1h-1.9l-1.5-3.9h-5.5l-1.5,3.9H536z M539.8,1040.8h4.4l-1.3-3.6c-0.4-1.1-0.7-2-0.9-2.7
	c-0.2,0.9-0.4,1.6-0.7,2.5L539.8,1040.8z"/>
<path d="M552.8,1044v-3.6h-3.5v-1.5h3.5v-3.5h1.5v3.5h3.5v1.5h-3.6v3.6H552.8z"/>
<path d="M560.2,1046.2v-13.1h4.9c1,0,1.8,0.1,2.4,0.4s1.1,0.7,1.4,1.2c0.4,0.5,0.5,1.1,0.5,1.7c0,0.5-0.1,1.1-0.4,1.6
	c-0.3,0.5-0.8,0.9-1.4,1.2c0.8,0.2,1.4,0.6,1.8,1.2c0.4,0.5,0.6,1.2,0.6,2c0,0.6-0.1,1.2-0.4,1.7c-0.2,0.5-0.5,0.9-1,1.2
	c-0.5,0.3-0.9,0.5-1.5,0.7c-0.5,0.1-1.3,0.2-2.1,0.2L560.2,1046.2L560.2,1046.2z M561.9,1038.6h2.8c0.8,0,1.3-0.1,1.6-0.1
	c0.4-0.1,0.8-0.4,1-0.7s0.3-0.7,0.3-1.2c0-0.4-0.1-0.8-0.3-1.2c-0.2-0.3-0.5-0.5-0.9-0.7c-0.4-0.1-1-0.2-2-0.2h-2.6v3.9h0.1V1038.6z
	 M561.9,1044.6h3.2c0.5,0,1,0,1.2-0.1c0.4-0.1,0.7-0.2,1-0.4c0.2-0.2,0.5-0.4,0.7-0.7s0.2-0.7,0.2-1.1c0-0.5-0.1-0.9-0.4-1.3
	c-0.3-0.4-0.6-0.6-1-0.7c-0.4-0.1-1.1-0.2-1.9-0.2h-3V1044.6L561.9,1044.6z"/>
<path d="M573.3,1050h-1.2c1.8-2.9,2.7-5.7,2.7-8.6c0-1.1-0.1-2.2-0.4-3.3c-0.2-0.9-0.5-1.8-0.9-2.6c-0.2-0.5-0.7-1.4-1.5-2.7h1.2
	c1.1,1.5,1.9,3,2.5,4.5c0.5,1.3,0.7,2.7,0.7,4.1c0,1.6-0.3,3.2-0.9,4.6C574.8,1047.6,574.1,1048.9,573.3,1050z"/>
<path d="M473.4,1085.3h-8.6v-1.6h8.6V1085.3z M473.4,1089.2h-8.6v-1.5h8.6V1089.2z"/>
<path d="M478.7,1096.7c-0.9-1.1-1.6-2.4-2.2-3.9s-0.9-3-0.9-4.6c0-1.4,0.2-2.8,0.7-4.1c0.5-1.5,1.3-3,2.5-4.5h1.2
	c-0.7,1.2-1.2,2.1-1.4,2.7c-0.4,0.8-0.7,1.7-0.9,2.6c-0.2,1.1-0.4,2.2-0.4,3.3c0,2.9,0.9,5.7,2.7,8.6L478.7,1096.7L478.7,1096.7z"/>
<path d="M480.5,1092.9l5-13.1h1.9l5.3,13.1h-1.9l-1.5-3.9h-5.5l-1.5,3.9H480.5z M484.2,1087.6h4.4l-1.3-3.6c-0.4-1.1-0.7-2-0.9-2.7
	c-0.2,0.9-0.4,1.6-0.7,2.5L484.2,1087.6z"/>
<path d="M497.2,1090.8v-3.6h-3.5v-1.5h3.5v-3.5h1.5v3.5h3.5v1.5h-3.5v3.6H497.2z"/>
<path d="M504.6,1092.9v-13.1h4.9c1,0,1.8,0.1,2.4,0.4c0.5,0.3,1.1,0.7,1.4,1.2c0.4,0.5,0.5,1.1,0.5,1.7c0,0.5-0.1,1.1-0.4,1.6
	c-0.3,0.5-0.8,0.9-1.4,1.2c0.8,0.2,1.4,0.6,1.8,1.2c0.4,0.5,0.6,1.2,0.6,2c0,0.6-0.1,1.2-0.4,1.7c-0.2,0.5-0.5,0.9-1,1.2
	s-0.9,0.5-1.5,0.7c-0.5,0.1-1.3,0.2-2.1,0.2L504.6,1092.9L504.6,1092.9z M506.3,1085.4h2.8c0.8,0,1.3-0.1,1.6-0.1
	c0.4-0.1,0.8-0.4,1-0.7c0.2-0.3,0.3-0.7,0.3-1.2c0-0.4-0.1-0.8-0.3-1.2c-0.2-0.3-0.5-0.5-0.9-0.7c-0.4-0.1-1-0.2-2-0.2h-2.6v3.9h0.1
	V1085.4z M506.3,1091.4h3.2c0.5,0,1,0,1.2-0.1c0.4-0.1,0.7-0.2,1-0.4c0.2-0.2,0.5-0.4,0.7-0.7c0.2-0.3,0.2-0.7,0.2-1.1
	c0-0.5-0.1-0.9-0.4-1.3c-0.2-0.4-0.6-0.6-1-0.7c-0.4-0.1-1.1-0.2-1.9-0.2h-3L506.3,1091.4L506.3,1091.4z"/>
<path d="M517.7,1096.7h-1.2c1.8-2.9,2.7-5.7,2.7-8.6c0-1.1-0.1-2.2-0.4-3.3c-0.2-0.9-0.5-1.8-0.9-2.6c-0.2-0.5-0.7-1.4-1.5-2.7h1.2
	c1.1,1.5,1.9,3,2.5,4.5c0.5,1.3,0.7,2.7,0.7,4.1c0,1.6-0.3,3.2-0.9,4.6C519.3,1094.3,518.5,1095.7,517.7,1096.7z"/>
<path d="M526.1,1090.8v-3.6h-3.5v-1.5h3.5v-3.5h1.5v3.5h3.5v1.5h-3.5v3.6H526.1z"/>
<path d="M536.4,1096.7c-0.9-1.1-1.6-2.4-2.2-3.9c-0.6-1.5-0.9-3-0.9-4.6c0-1.4,0.2-2.8,0.7-4.1c0.5-1.5,1.3-3,2.5-4.5h1.2
	c-0.7,1.2-1.2,2.1-1.4,2.7c-0.4,0.8-0.7,1.7-0.9,2.6c-0.2,1.1-0.4,2.2-0.4,3.3c0,2.9,0.9,5.7,2.7,8.6L536.4,1096.7L536.4,1096.7z"/>
<path d="M538.2,1092.9l5-13.1h1.9l5.3,13.1h-1.9l-1.5-3.9h-5.5l-1.5,3.9H538.2z M541.9,1087.6h4.4l-1.3-3.6c-0.4-1.1-0.7-2-0.9-2.7
	c-0.2,0.9-0.4,1.6-0.7,2.5L541.9,1087.6z"/>
<path d="M554.9,1090.8v-3.6h-3.5v-1.5h3.5v-3.5h1.5v3.5h3.5v1.5h-3.5v3.6H554.9z"/>
<path d="M562.3,1092.9v-13.1h4.9c1,0,1.8,0.1,2.4,0.4c0.5,0.3,1.1,0.7,1.4,1.2c0.4,0.5,0.5,1.1,0.5,1.7c0,0.5-0.1,1.1-0.4,1.6
	c-0.3,0.5-0.8,0.9-1.4,1.2c0.8,0.2,1.4,0.6,1.8,1.2c0.4,0.5,0.6,1.2,0.6,2c0,0.6-0.1,1.2-0.4,1.7c-0.2,0.5-0.5,0.9-1,1.2
	c-0.4,0.3-0.9,0.5-1.5,0.7c-0.5,0.1-1.3,0.2-2.1,0.2L562.3,1092.9L562.3,1092.9z M564.1,1085.4h2.8c0.8,0,1.3-0.1,1.6-0.1
	c0.4-0.1,0.8-0.4,1-0.7c0.2-0.3,0.3-0.7,0.3-1.2c0-0.4-0.1-0.8-0.3-1.2c-0.2-0.3-0.5-0.5-0.9-0.7c-0.4-0.1-1-0.2-2-0.2H564v3.9h0.1
	V1085.4z M564.1,1091.4h3.2c0.5,0,1,0,1.2-0.1c0.4-0.1,0.7-0.2,1-0.4c0.2-0.2,0.5-0.4,0.7-0.7c0.2-0.3,0.2-0.7,0.2-1.1
	c0-0.5-0.1-0.9-0.4-1.3s-0.6-0.6-1-0.7c-0.4-0.1-1.1-0.2-1.9-0.2h-3V1091.4L564.1,1091.4z"/>
<path d="M575.4,1096.7h-1.2c1.8-2.9,2.7-5.7,2.7-8.6c0-1.1-0.1-2.2-0.4-3.3c-0.2-0.9-0.5-1.8-0.9-2.6c-0.2-0.5-0.7-1.4-1.5-2.7h1.2
	c1.1,1.5,1.9,3,2.5,4.5c0.5,1.3,0.7,2.7,0.7,4.1c0,1.6-0.3,3.2-0.9,4.6C577,1094.3,576.3,1095.7,575.4,1096.7z"/>
</svg>
