<?xml version="1.0" encoding="utf-8"?>
<!-- Generator: Adobe Illustrator 17.1.0, SVG Export Plug-In . SVG Version: 6.00 Build 0)  -->
<!DOCTYPE svg PUBLIC "-//W3C//DTD SVG 1.1//EN" "http://www.w3.org/Graphics/SVG/1.1/DTD/svg11.dtd">
<svg version="1.1" id="Layer_1" xmlns="http://www.w3.org/2000/svg" xmlns:xlink="http://www.w3.org/1999/xlink" x="0px" y="0px"
	 viewBox="-56.4 855.3 640 374" enable-background="new -56.4 855.3 640 374" xml:space="preserve">
<path fill="none" stroke="#000000" stroke-width="3" stroke-linejoin="round" d="M154.2,999.3c0,3.3-2.7,6-5.7,6
	c-3.1,0-5.7-2.7-5.7-6c0-3.3,2.7-6,5.7-6C151.7,993.5,154.2,996.2,154.2,999.3z"/>
<path fill="none" stroke="#000000" stroke-width="3" d="M52.7,1020.6H26.6v-44.4h26.1"/>
<path fill="none" stroke="#000000" stroke-width="3" d="M26.6,999H-5.8"/>
<line fill="none" stroke="#000000" stroke-width="3" x1="154.3" y1="999.2" x2="231" y2="999.2"/>
<path fill="none" stroke="#000000" stroke-width="3" stroke-linejoin="round" d="M154.2,1131.1c0,3.3-2.7,6-5.7,6
	c-3.1,0-5.7-2.7-5.7-6c0-3.3,2.7-6,5.7-6C151.7,1125.2,154.2,1127.8,154.2,1131.1z"/>
<path fill="none" stroke="#000000" stroke-width="3" d="M52.7,1152.3H26.6v-44.4h26.1"/>
<path fill="none" stroke="#000000" stroke-width="3" d="M26.6,1130.6h-73.9"/>
<line fill="none" stroke="#000000" stroke-width="3" x1="154.3" y1="1130.9" x2="231" y2="1130.9"/>
<path fill="none" stroke="#000000" stroke-width="3" stroke-linejoin="round" d="M332.6,1154.2c0,3.3-2.7,6-5.7,6
	c-3.1,0-5.7-2.7-5.7-6s2.7-6,5.7-6C330.2,1148.1,332.6,1150.8,332.6,1154.2z"/>
<path fill="none" stroke="#000000" stroke-width="3" stroke-linejoin="round" d="M332.6,978.3c0,3.3-2.7,6-5.7,6
	c-3.1,0-5.7-2.7-5.7-6s2.7-6,5.7-6C330.2,972.2,332.6,974.9,332.6,978.3z"/>
<path fill="none" stroke="#000000" stroke-width="3" stroke-linejoin="round" d="M511.1,1067.2c0,3.3-2.7,6-5.7,6s-5.7-2.7-5.7-6
	s2.7-6,5.7-6C508.7,1061,511.1,1063.7,511.1,1067.2z"/>
<path fill="none" stroke="#000000" stroke-width="3" d="M565.8,1066.8h-54.6"/>
<line fill="none" stroke="#000000" stroke-width="3" x1="-47.4" y1="882.5" x2="-47.4" y2="1229.3"/>
<line fill="none" stroke="#000000" stroke-width="3" x1="-7.1" y1="882.5" x2="-7.1" y2="1229.3"/>
<polyline fill="none" stroke="#000000" stroke-width="3" points="332.7,978.1 366.7,978.1 366.7,1044 409.5,1044 "/>
<polyline fill="none" stroke="#000000" stroke-width="3" points="332.7,1154 366.7,1154 366.7,1088.3 409.5,1088.3 "/>
<polyline fill="none" stroke="#000000" stroke-width="3" points="231,1175.4 172.7,1175.4 172.7,1193.9 -7.1,1193.9 "/>
<polyline fill="none" stroke="#000000" stroke-width="3" points="231,955.1 172.7,955.1 172.7,935.4 -47.4,935.4 "/>
<rect x="323.3" y="927.5" width="48.3" height="3.1"/>
<rect x="451.8" y="978.8" width="122.9" height="3.1"/>
<rect x="353.9" y="935.4" width="17.7" height="3.1"/>
<rect x="451.8" y="985.8" width="48.3" height="3.1"/>
<rect x="482.4" y="993.7" width="17.7" height="3.1"/>
<rect x="311" y="1087" width="48.3" height="3.1"/>
<rect x="311" y="1094.9" width="17.7" height="3.1"/>
<rect x="526.4" y="985.6" width="48.3" height="3.1"/>
<rect x="526.4" y="993.5" width="17.7" height="3.1"/>
<rect x="184.4" y="1089.8" width="17.7" height="3.1"/>
<rect x="183.9" y="1010.2" width="17.7" height="3.1"/>
<path d="M-47.4,859l-3.7,9.7h7.3L-47.4,859 M-48.9,856.5h3.1l7.5,19.5H-41l-1.9-5.1h-8.8l-1.9,5.1h-2.8L-48.9,856.5"/>
<path d="M193.2,1101.4l-3.7,9.7h7.3L193.2,1101.4 M191.6,1098.9h3.1l7.5,19.5h-2.7l-1.9-5.1h-8.8l-1.9,5.1h-2.8L191.6,1098.9"/>
<path d="M573,1057.2h10.6v2.2h-8.2v6.5h7.4v2.2h-7.4v8.9h-2.5L573,1057.2L573,1057.2z"/>
<path d="M-14.1,877.2v-21.9h8.2c1.7,0,3.1,0.3,4.1,0.6c1,0.5,1.8,1.1,2.4,2c0.5,0.9,0.9,1.9,0.9,2.8s-0.3,1.9-0.8,2.7
	c-0.5,0.8-1.3,1.5-2.3,2c1.3,0.4,2.3,1.1,3.1,2c0.6,0.9,1.1,2,1.1,3.3c0,1-0.3,2-0.6,2.8c-0.5,0.9-1,1.5-1.7,2
	c-0.6,0.5-1.5,0.9-2.4,1.1c-1,0.3-2.2,0.4-3.6,0.4L-14.1,877.2L-14.1,877.2z M-11.2,864.5h4.7c1.3,0,2.3-0.1,2.8-0.3
	c0.6-0.3,1.3-0.6,1.7-1.1c0.3-0.5,0.5-1.1,0.5-1.9c0-0.6-0.1-1.4-0.5-1.9c-0.4-0.5-0.9-0.9-1.5-1.1s-1.8-0.3-3.3-0.3h-4.3
	C-11.2,857.9-11.2,864.5-11.2,864.5z M-11.2,874.6h5.5c0.9,0,1.5-0.1,1.9-0.1c0.6-0.1,1.3-0.3,1.7-0.6c0.5-0.3,0.8-0.6,1.1-1.3
	s0.5-1.1,0.5-1.9s-0.3-1.5-0.6-2.2c-0.5-0.6-1-1-1.8-1.3c-0.8-0.3-1.9-0.4-3.2-0.4h-5v7.8H-11.2z"/>
<path d="M184.4,1041.5v-21.9h8.2c1.7,0,3.1,0.3,4.1,0.6c1,0.5,1.8,1.1,2.4,2c0.5,0.9,0.9,1.9,0.9,2.8c0,0.9-0.3,1.9-0.8,2.7
	c-0.5,0.8-1.3,1.5-2.3,2c1.3,0.4,2.3,1.1,3.1,2c0.6,0.9,1.1,2,1.1,3.3c0,1-0.3,2-0.6,2.8c-0.5,0.9-1,1.5-1.7,2
	c-0.6,0.5-1.5,0.9-2.4,1.1c-1,0.3-2.2,0.4-3.6,0.4L184.4,1041.5L184.4,1041.5z M187.3,1028.8h4.7c1.3,0,2.3-0.1,2.8-0.3
	c0.6-0.3,1.3-0.6,1.7-1.1s0.5-1.1,0.5-1.9c0-0.6-0.1-1.4-0.5-1.9c-0.4-0.5-0.9-0.9-1.5-1.1c-0.6-0.3-1.8-0.3-3.3-0.3h-4.3V1028.8
	L187.3,1028.8z M187.3,1039h5.5c0.9,0,1.5-0.1,1.9-0.1c0.6-0.1,1.3-0.3,1.7-0.6c0.5-0.3,0.8-0.6,1.1-1.3c0.3-0.5,0.5-1.1,0.5-1.9
	s-0.3-1.5-0.6-2.2c-0.5-0.6-1-1-1.8-1.3c-0.8-0.3-1.9-0.4-3.2-0.4h-5L187.3,1039L187.3,1039z"/>
<path d="M326.1,960l6.4-16.7h2.4l6.8,16.7h-2.4l-1.9-5h-7l-1.9,5H326.1z M331,953.1h5.6l-1.7-4.6c-0.5-1.4-0.9-2.5-1.1-3.4
	c-0.3,1.1-0.5,2-0.9,3.2L331,953.1z"/>
<path d="M356.8,960v-16.7h6.2c1.3,0,2.3,0.1,3.1,0.5c0.6,0.4,1.4,0.9,1.8,1.5c0.5,0.6,0.6,1.4,0.6,2.2c0,0.6-0.1,1.4-0.5,2
	c-0.4,0.6-1,1.1-1.8,1.5c1,0.3,1.8,0.8,2.3,1.5c0.5,0.6,0.8,1.5,0.8,2.5c0,0.8-0.1,1.5-0.5,2.2c-0.3,0.6-0.6,1.1-1.3,1.5
	c-0.6,0.4-1.1,0.6-1.9,0.9c-0.6,0.1-1.7,0.3-2.7,0.3L356.8,960L356.8,960z M359.1,950.3h3.6c1,0,1.7-0.1,2-0.1
	c0.5-0.1,1-0.5,1.3-0.9s0.4-0.9,0.4-1.5c0-0.5-0.1-1-0.4-1.5c-0.3-0.4-0.6-0.6-1.1-0.9c-0.5-0.1-1.3-0.3-2.5-0.3H359v5h0.1V950.3z
	 M359.1,957.9h4.1c0.6,0,1.3,0,1.5-0.1c0.5-0.1,0.9-0.3,1.3-0.5c0.3-0.3,0.6-0.5,0.9-0.9s0.3-0.9,0.3-1.4c0-0.6-0.1-1.1-0.5-1.7
	c-0.4-0.5-0.8-0.8-1.3-0.9c-0.5-0.1-1.4-0.3-2.4-0.3h-3.8L359.1,957.9L359.1,957.9z"/>
<path d="M451.8,1023.2c-1.1-1.4-2-3.1-2.8-5c-0.8-1.9-1.1-3.8-1.1-5.9c0-1.8,0.3-3.6,0.9-5.2c0.6-1.9,1.7-3.8,3.2-5.7h1.5
	c-0.9,1.5-1.5,2.7-1.8,3.4c-0.5,1-0.9,2.2-1.1,3.3c-0.3,1.4-0.5,2.8-0.5,4.2c0,3.7,1.1,7.3,3.4,11L451.8,1023.2L451.8,1023.2z"/>
<path d="M454,1018.3l6.4-16.7h2.4l6.8,16.7h-2.4l-1.9-5h-7l-1.9,5H454z M458.8,1011.5h5.6l-1.7-4.6c-0.5-1.4-0.9-2.5-1.1-3.4
	c-0.3,1.1-0.5,2-0.9,3.2L458.8,1011.5z"/>
<path d="M484.8,1018.3v-16.7h6.2c1.3,0,2.3,0.1,3.1,0.5c0.6,0.4,1.4,0.9,1.8,1.5c0.5,0.6,0.6,1.4,0.6,2.2c0,0.6-0.1,1.4-0.5,2
	c-0.4,0.6-1,1.1-1.8,1.5c1,0.3,1.8,0.8,2.3,1.5s0.8,1.5,0.8,2.5c0,0.8-0.1,1.5-0.5,2.2c-0.3,0.6-0.6,1.1-1.3,1.5
	c-0.5,0.4-1.1,0.6-1.9,0.9c-0.6,0.1-1.7,0.3-2.7,0.3L484.8,1018.3L484.8,1018.3z M487.1,1008.6h3.6c1,0,1.7-0.1,2-0.1
	c0.5-0.1,1-0.5,1.3-0.9s0.4-0.9,0.4-1.5c0-0.5-0.1-1-0.4-1.5c-0.3-0.4-0.6-0.6-1.1-0.9c-0.5-0.1-1.3-0.3-2.5-0.3H487v5h0.1V1008.6z
	 M487.1,1016.3h4.1c0.6,0,1.3,0,1.5-0.1c0.5-0.1,0.9-0.3,1.3-0.5c0.3-0.3,0.6-0.5,0.9-0.9s0.3-0.9,0.3-1.4c0-0.6-0.1-1.1-0.5-1.7
	c-0.3-0.5-0.8-0.8-1.3-0.9c-0.5-0.1-1.4-0.3-2.4-0.3h-3.8L487.1,1016.3L487.1,1016.3z"/>
<path d="M501.5,1023.2H500c2.3-3.7,3.4-7.3,3.4-11c0-1.4-0.1-2.8-0.5-4.2c-0.3-1.1-0.6-2.3-1.1-3.3c-0.3-0.6-0.9-1.8-1.9-3.4h1.5
	c1.4,1.9,2.4,3.8,3.2,5.7c0.6,1.7,0.9,3.4,0.9,5.2c0,2-0.4,4.1-1.1,5.9C503.6,1020.1,502.7,1021.8,501.5,1023.2z"/>
<path d="M525.3,1023.2c-1.1-1.4-2-3.1-2.8-5c-0.8-1.9-1.1-3.8-1.1-5.9c0-1.8,0.3-3.6,0.9-5.2c0.6-1.9,1.7-3.8,3.2-5.7h1.5
	c-0.9,1.5-1.5,2.7-1.8,3.4c-0.5,1-0.9,2.2-1.1,3.3c-0.3,1.4-0.5,2.8-0.5,4.2c0,3.7,1.1,7.3,3.4,11L525.3,1023.2L525.3,1023.2z"/>
<path d="M527.6,1018.3l6.4-16.7h2.4l6.8,16.7h-2.4l-1.9-5h-7l-1.9,5H527.6z M532.5,1011.5h5.6l-1.7-4.6c-0.5-1.4-0.9-2.5-1.1-3.4
	c-0.3,1.1-0.5,2-0.9,3.2L532.5,1011.5z"/>
<path d="M558.5,1018.3v-16.7h6.2c1.3,0,2.3,0.1,3.1,0.5c0.6,0.4,1.4,0.9,1.8,1.5c0.5,0.6,0.6,1.4,0.6,2.2c0,0.6-0.1,1.4-0.5,2
	c-0.4,0.6-1,1.1-1.8,1.5c1,0.3,1.8,0.8,2.3,1.5c0.5,0.6,0.8,1.5,0.8,2.5c0,0.8-0.1,1.5-0.5,2.2c-0.3,0.6-0.6,1.1-1.3,1.5
	c-0.5,0.4-1.1,0.6-1.9,0.9c-0.6,0.1-1.7,0.3-2.7,0.3L558.5,1018.3L558.5,1018.3z M560.7,1008.6h3.6c1,0,1.7-0.1,2-0.1
	c0.5-0.1,1-0.5,1.3-0.9s0.4-0.9,0.4-1.5c0-0.5-0.1-1-0.4-1.5c-0.3-0.4-0.6-0.6-1.1-0.9c-0.5-0.1-1.3-0.3-2.5-0.3h-3.3v5h0.1V1008.6z
	 M560.7,1016.3h4.1c0.6,0,1.3,0,1.5-0.1c0.5-0.1,0.9-0.3,1.3-0.5c0.3-0.3,0.6-0.5,0.9-0.9s0.3-0.9,0.3-1.4c0-0.6-0.1-1.1-0.5-1.7
	c-0.3-0.5-0.8-0.8-1.3-0.9c-0.5-0.1-1.4-0.3-2.4-0.3h-3.8L560.7,1016.3L560.7,1016.3z"/>
<path d="M575.1,1023.2h-1.5c2.3-3.7,3.4-7.3,3.4-11c0-1.4-0.1-2.8-0.5-4.2c-0.3-1.1-0.6-2.3-1.1-3.3c-0.3-0.6-0.9-1.8-1.9-3.4h1.5
	c1.4,1.9,2.4,3.8,3.2,5.7c0.6,1.7,0.9,3.4,0.9,5.2c0,2-0.4,4.1-1.1,5.9C577.1,1020.1,576.2,1021.8,575.1,1023.2z"/>
<path d="M314.1,1119.5l6.4-16.7h2.4l6.8,16.7h-2.4l-1.9-5h-7l-1.9,5H314.1z M319,1112.8h5.6l-1.7-4.6c-0.5-1.4-0.9-2.5-1.1-3.4
	c-0.3,1.1-0.5,2-0.9,3.2L319,1112.8z"/>
<path d="M344.9,1119.5v-16.7h6.2c1.3,0,2.3,0.1,3.1,0.5c0.6,0.4,1.4,0.9,1.8,1.5c0.5,0.6,0.6,1.4,0.6,2.2c0,0.6-0.1,1.4-0.5,2
	c-0.4,0.6-1,1.1-1.8,1.5c1,0.3,1.8,0.8,2.3,1.5c0.5,0.6,0.8,1.5,0.8,2.5c0,0.8-0.1,1.5-0.5,2.2c-0.3,0.6-0.6,1.1-1.3,1.5
	c-0.5,0.4-1.1,0.6-1.9,0.9c-0.6,0.1-1.7,0.3-2.7,0.3L344.9,1119.5L344.9,1119.5z M347.2,1109.9h3.6c1,0,1.7-0.1,2-0.1
	c0.5-0.1,1-0.5,1.3-0.9s0.4-0.9,0.4-1.5c0-0.5-0.1-1-0.4-1.5c-0.3-0.4-0.6-0.6-1.1-0.9c-0.5-0.1-1.3-0.3-2.5-0.3H347v5h0.1V1109.9z
	 M347.2,1117.6h4.1c0.6,0,1.3,0,1.5-0.1c0.5-0.1,0.9-0.3,1.3-0.5c0.3-0.3,0.6-0.5,0.9-0.9c0.3-0.4,0.3-0.9,0.3-1.4
	c0-0.6-0.1-1.1-0.5-1.7c-0.4-0.5-0.8-0.8-1.3-0.9c-0.5-0.1-1.4-0.3-2.4-0.3h-3.8L347.2,1117.6L347.2,1117.6z"/>
<path fill="none" stroke="#000000" stroke-width="3" stroke-linejoin="round" d="M231,941.6c20.4,0.1,40.8-0.5,60.9,0.9
	c8.8,1.4,12.5,3.8,17.7,8.7c8.4,8.2,11.5,20.8,10.5,32.1c-0.6,8.7-4.7,18.4-12.4,24c-4.3,3.3-9.4,5.4-15.9,6.6
	c-12.2,1.5-24.6,1-37,1.1c-7.9,0-15.9,0-23.8,0.3V941.6L231,941.6z"/>
<path fill="none" stroke="#000000" stroke-width="3" stroke-linejoin="round" d="M52.7,962.6c20.4,0.1,40.8-0.5,60.9,0.9
	c8.8,1.4,12.5,3.8,17.7,8.7c8.4,8.2,11.5,20.8,10.5,32.1c-0.6,8.7-4.7,18.4-12.4,24c-4.3,3.3-9.4,5.4-15.9,6.6
	c-12.2,1.5-24.6,1-37,1.1c-7.9,0-15.9,0-23.8,0.3V962.6L52.7,962.6z"/>
<path fill="none" stroke="#000000" stroke-width="3" stroke-linejoin="round" d="M52.7,1094.4c20.4,0.1,40.8-0.5,60.9,0.9
	c8.8,1.4,12.5,3.8,17.7,8.7c8.4,8.2,11.5,20.8,10.5,32.1c-0.6,8.7-4.7,18.4-12.4,24c-4.3,3.3-9.4,5.4-15.9,6.6
	c-12.2,1.5-24.6,1-37,1.1c-7.9,0-15.9,0-23.8,0.3V1094.4L52.7,1094.4z"/>
<path fill="none" stroke="#000000" stroke-width="3" stroke-linejoin="round" d="M231,1117.2c20.4,0.1,40.8-0.5,60.9,0.9
	c8.8,1.4,12.5,3.8,17.7,8.7c8.4,8.2,11.5,20.8,10.5,32.1c-0.6,8.7-4.7,18.4-12.4,24c-4.3,3.3-9.4,5.4-15.9,6.6
	c-12.2,1.5-24.6,1-37,1.1c-7.9,0-15.9,0-23.8,0.3V1117.2L231,1117.2z"/>
<path fill="none" stroke="#000000" stroke-width="3" stroke-linejoin="round" d="M409.5,1030.4c20.4,0.1,40.8-0.5,60.9,0.9
	c8.8,1.4,12.5,3.8,17.7,8.7c8.4,8.2,11.5,20.8,10.5,32.1c-0.6,8.7-4.7,18.4-12.4,24c-4.3,3.3-9.4,5.4-15.9,6.6
	c-12.2,1.5-24.6,1-37,1.1c-7.9,0-15.9,0-23.8,0.3L409.5,1030.4L409.5,1030.4z"/>
<path d="M345.9,957.9c0-1.5,1-2.5,2.4-2.5c1.4,0,2.4,1,2.4,2.5c0,1.4-0.9,2.5-2.4,2.5C346.9,960.4,345.9,959.3,345.9,957.9z"/>
<path d="M474.9,1016.3c0-1.5,1-2.5,2.4-2.5c1.4,0,2.4,1,2.4,2.5c0,1.4-0.9,2.5-2.4,2.5C475.9,1018.8,474.9,1017.7,474.9,1016.3z"/>
<path d="M511.3,1016.3c0-1.5,1-2.5,2.4-2.5c1.4,0,2.4,1,2.4,2.5c0,1.4-0.9,2.5-2.4,2.5C512.2,1018.8,511.3,1017.7,511.3,1016.3z"/>
<path d="M547.8,1016.3c0-1.5,1-2.5,2.4-2.5c1.4,0,2.4,1,2.4,2.5c0,1.4-0.9,2.5-2.4,2.5C548.7,1018.8,547.8,1017.7,547.8,1016.3z"/>
<path d="M334.2,1117.5c0-1.5,1-2.5,2.4-2.5c1.4,0,2.4,1,2.4,2.5c0,1.4-0.9,2.5-2.4,2.5C335.1,1120,334.2,1118.9,334.2,1117.5z"/>
</svg>
